<svg width="106" height="109" viewBox="0 0 106 109" fill="none" xmlns="http://www.w3.org/2000/svg">
<path fill-rule="evenodd" clip-rule="evenodd" d="M9.84473 71.6915C9.92773 66.8015 9.98373 61.9615 9.92773 57.0825L9.81273 51.7545C9.74573 45.4905 9.65273 39.2255 9.42773 32.9675C9.32673 30.1915 9.15373 27.4025 8.92473 24.6595C8.59873 21.1405 8.30373 17.5915 8.02473 14.1285C7.95973 13.0465 8.23073 13.0985 8.79773 13.9455C9.42973 14.7875 10.1597 16.4795 10.4347 18.5245C10.9867 22.1485 11.1407 25.7845 11.3237 29.4165C11.4857 33.0515 11.5717 36.6925 11.5797 40.3505C11.5947 44.7245 11.8387 49.2685 11.9177 53.7395C11.9997 58.6535 12.0497 63.5785 11.9897 68.4995C11.9637 71.5225 11.9327 74.5445 11.9577 77.5595C12.0037 82.1275 12.0817 86.7175 12.4567 91.2305C12.7417 94.7385 13.2627 98.1515 13.8537 101.57C13.9927 102.321 14.1287 103.057 14.2687 103.815C14.7557 106.626 14.8027 107.538 14.2837 108.261C14.1677 108.425 14.0607 108.634 13.9337 108.741C13.5067 109.104 12.8987 108.023 12.3987 105.955C10.9487 99.8175 10.2527 93.1695 9.97173 86.5215C9.74873 81.5805 9.78273 76.6265 9.79173 71.6975L9.84473 71.6915Z" fill="white"/>
<path fill-rule="evenodd" clip-rule="evenodd" d="M37.7056 95.6807C42.5966 95.9297 47.5006 96.0327 52.4036 95.9777C54.1946 95.9787 55.9786 95.8427 57.7666 95.8137C64.0686 95.6467 70.3726 95.2727 76.6386 94.5467C79.4176 94.2217 82.1986 93.7847 84.9266 93.2827C86.6746 92.9327 88.4276 92.5927 90.1636 92.1817C91.9156 91.8447 93.6636 91.4977 95.4266 91.1937C96.5286 91.0137 96.4636 91.3247 95.6416 91.9087C94.8146 92.4667 93.2546 93.4657 91.2426 94.0187C87.6616 94.9427 84.0236 95.5607 80.3776 96.1387C76.7196 96.6217 73.0446 97.0247 69.3416 97.2207C64.9176 97.4867 60.3276 97.8977 55.7986 98.0347C50.8226 98.1937 45.8406 98.1967 40.8646 98.0697C37.8016 97.9737 34.7396 97.8437 31.6836 97.6547C27.0666 97.3227 22.4276 96.9887 17.8446 96.6587C14.2796 96.4117 10.7716 96.2677 7.23862 95.9867C6.46062 95.9207 5.69662 95.8867 4.91362 95.7997C2.01262 95.4867 1.11562 95.1757 0.593615 94.4217C0.474615 94.2497 0.311615 94.0717 0.252615 93.9077C0.0546154 93.3467 1.28262 93.1017 3.39562 93.2337C9.66562 93.6297 16.2426 94.1557 22.8906 94.6457C27.8396 95.0117 32.7666 95.4367 37.7016 95.6227L37.7056 95.6807Z" fill="white"/>
<path fill-rule="evenodd" clip-rule="evenodd" d="M23.0415 66.3918C23.0075 69.1128 23.0115 71.8388 23.0565 74.5628L23.1665 77.5408C23.2525 81.0368 23.3065 84.5598 23.6565 87.9988C23.6995 88.3628 23.7495 88.7258 23.8155 89.0688C23.8405 89.1918 23.8535 89.2568 23.8835 89.3508C23.9085 89.4348 23.9515 89.5328 24.0525 89.5378C24.1465 89.5718 24.2455 89.5738 24.3445 89.5838C24.4705 89.5858 24.6895 89.6028 24.8715 89.5938C25.2495 89.5948 25.6405 89.5758 26.0285 89.5478C26.9935 89.4758 27.9675 89.3358 28.9395 89.2008C29.9065 89.0428 30.9025 88.9977 31.8635 88.8908C32.4345 88.8298 32.4855 89.1378 32.0445 89.6148C31.6015 90.0648 30.7125 90.7218 29.5655 90.9688C28.5995 91.1448 27.6295 91.2948 26.6365 91.3998C26.1375 91.4488 25.6365 91.4908 25.1105 91.5038C24.8465 91.5098 24.5825 91.5008 24.2915 91.4758C24.1105 91.4778 23.8525 91.4238 23.6385 91.3658C23.4155 91.3118 23.1895 91.2648 22.9765 91.1808C22.0845 90.7718 22.0015 89.2328 21.9355 88.9158C21.8615 88.3498 21.8155 87.8018 21.7775 87.2538C21.7055 86.1598 21.6725 85.0758 21.6625 83.9898C21.6395 81.5238 21.4405 78.9788 21.3845 76.4698C21.3235 73.7108 21.3105 70.9518 21.3235 68.1928L21.3915 63.0988C21.4175 61.8108 21.4605 60.5218 21.5325 59.2308C21.5685 58.5848 21.6095 57.9388 21.6725 57.2878C21.7085 56.9548 21.7275 56.6798 21.8245 56.1818C21.9095 55.7508 22.0485 55.2788 22.4915 55.2068C22.8005 55.1408 23.1825 55.1628 23.5075 55.1888L24.2795 55.2558L25.7395 55.3798C26.7045 55.4508 27.6645 55.4688 28.6015 55.4328C29.0145 55.4138 29.4135 55.3818 29.8105 55.3378C31.2845 55.1728 31.5715 55.0598 32.0785 55.2108C32.1875 55.2378 32.3245 55.2398 32.4235 55.2728C32.5895 55.3238 32.6065 55.5208 32.3915 55.8348C32.1775 56.1458 31.7025 56.4938 31.0635 56.7138C29.1565 57.3398 27.2635 57.1478 25.4195 57.0168L24.0485 56.8988L23.4355 56.8488C23.3735 56.8458 23.4065 56.8508 23.3945 56.8528C23.3895 56.8728 23.4015 56.8328 23.3935 56.8988C23.3415 57.3128 23.3085 57.7608 23.2795 58.2068C23.1245 60.8828 23.0895 63.6478 23.0845 66.3878L23.0415 66.3918Z" fill="white"/>
<path fill-rule="evenodd" clip-rule="evenodd" d="M32.4292 71.3819L32.3212 75.0799C32.3112 75.5289 32.3522 75.9779 32.3402 76.4269C32.2952 78.0129 32.2372 79.5999 32.2192 81.1859C32.2062 81.8889 32.2402 82.5949 32.2852 83.2909L32.3872 84.6299C32.3952 85.0659 32.3582 85.5549 32.2942 85.9379C32.2822 85.9839 32.2542 86.0239 32.2162 86.0579C32.1962 86.0759 32.1752 86.0909 32.1512 86.1049L32.1322 86.1139L32.0082 86.1569C31.9462 86.1789 31.9252 86.1859 31.9452 86.1789C32.0712 86.1369 32.0182 86.1499 31.9822 86.1529C31.9502 86.1549 31.9152 86.1529 31.8792 86.1469C31.8062 86.1339 31.7262 86.1029 31.6402 86.0459C31.3062 85.8019 30.9052 85.3949 30.7962 84.8739C30.6222 83.0329 30.5692 81.2019 30.7322 79.3449C30.8242 78.2359 30.7142 77.0879 30.7112 75.9559L30.7422 72.2209L30.7712 69.9229C30.7782 68.7629 30.8142 67.5969 30.7832 66.4449C30.7612 65.5489 30.6312 64.6719 30.5682 63.7769C30.5532 63.5799 30.5222 63.3869 30.5162 63.1889C30.5052 62.4469 30.6392 62.2119 31.1222 62.0819C31.2332 62.0519 31.3442 62.0109 31.4532 61.9969C31.8262 61.9509 32.1202 62.2609 32.2042 62.7829C32.4692 64.3399 32.5052 65.9929 32.5072 67.6569C32.4952 68.8939 32.4832 70.1379 32.4712 71.3799L32.4292 71.3819Z" fill="white"/>
<path fill-rule="evenodd" clip-rule="evenodd" d="M45.2217 58.9708C45.2267 62.1848 45.2547 65.4008 45.3157 68.6158L45.4387 72.1318C45.5277 76.2628 45.6037 80.4008 45.8437 84.5158C45.8997 85.4268 45.9747 86.3408 46.0847 87.2368L46.1767 87.9028L46.2297 88.2278L46.2657 88.4058C46.3017 88.4998 46.2977 88.6398 46.4057 88.6768C46.5077 88.7128 46.6167 88.7158 46.7197 88.7238C46.7587 88.7188 46.8907 88.7338 47.0367 88.7288L47.4507 88.7228L48.2967 88.6688C48.8657 88.6238 49.4387 88.5568 50.0117 88.4898C51.1537 88.3308 52.3237 88.2708 53.4597 88.1388C54.1317 88.0588 54.1727 88.3698 53.6337 88.8648C53.0927 89.3308 52.0287 90.0078 50.6667 90.2608C49.4507 90.4468 48.2547 90.6138 46.9207 90.6258L46.6177 90.6158C46.4637 90.6098 46.3117 90.6008 46.1677 90.5808C45.8927 90.5118 45.5957 90.4688 45.3517 90.3518C45.2507 90.2668 45.0837 90.2568 45.0387 90.1108C44.9427 90.0128 44.8327 89.9378 44.7567 89.8278C44.6087 89.6048 44.5187 89.3258 44.4497 89.0438L44.3637 88.6088L44.3277 88.3558L44.2687 87.8818L44.1787 86.9578C43.9847 84.5208 43.9317 82.1188 43.9247 79.6958C43.9207 76.8018 43.7187 73.8028 43.6527 70.8488C43.5797 67.6028 43.5467 64.3548 43.5277 61.1068L43.5167 55.1108C43.5267 52.0818 43.5577 49.0458 43.6697 46.0208C43.7137 45.4078 43.6807 44.9388 43.8507 44.0198C43.8977 43.8228 43.9527 43.6348 44.0597 43.4848C44.2097 43.3648 44.3597 43.2748 44.5547 43.2518C44.9117 43.1908 45.4457 43.2628 45.7507 43.2888C46.9107 43.4058 48.0367 43.5088 49.1557 43.5398C49.6467 43.5508 50.1217 43.5458 50.5997 43.5278C52.3837 43.4508 52.7007 43.2808 53.2537 43.4028C53.3767 43.4238 53.5207 43.4018 53.6297 43.4238C53.8057 43.4478 53.8307 43.6768 53.5617 44.0338C53.2947 44.3918 52.7057 44.7648 51.9457 44.9638C49.7057 45.5198 47.4467 45.1158 45.4207 44.9238C45.3907 44.0708 45.2657 47.3028 45.2577 49.2558C45.2257 52.4738 45.2267 55.7238 45.2647 58.9658L45.2217 58.9708Z" fill="white"/>
<path fill-rule="evenodd" clip-rule="evenodd" d="M54.0337 64.735L53.9597 69.975C53.9557 70.613 54.0007 71.249 53.9917 71.886C53.9637 74.131 53.9347 76.381 53.9067 78.626C53.8997 79.622 53.9367 80.624 53.9867 81.61L54.0967 83.513C54.1067 84.134 54.0727 84.816 54.0087 85.383C53.9977 85.455 53.9687 85.514 53.9297 85.561C53.8887 85.608 53.8867 85.627 53.6427 85.704L53.7657 85.662L53.7427 85.665L53.6967 85.666C53.6637 85.665 53.6297 85.657 53.5937 85.644C53.5207 85.617 53.4397 85.566 53.3537 85.481C53.0197 85.13 52.6167 84.544 52.5057 83.806C52.3237 81.208 52.2577 78.615 52.4067 75.991C52.4907 74.423 52.3697 72.797 52.3587 71.195L52.3557 65.912L52.3607 62.66C52.3537 61.019 52.3777 59.369 52.3317 57.74C52.2937 56.473 52.1617 55.232 52.0797 53.974C52.0637 53.696 52.0317 53.424 52.0247 53.144C51.9937 52.11 52.1477 51.754 52.6267 51.563C52.7367 51.518 52.8477 51.457 52.9577 51.434C53.3317 51.36 53.6227 51.791 53.7047 52.521C53.9837 54.733 54.0507 57.089 54.0717 59.45C54.0727 61.206 54.0747 62.971 54.0757 64.732L54.0337 64.735Z" fill="white"/>
<path fill-rule="evenodd" clip-rule="evenodd" d="M67.6709 50.1143C67.6909 54.0033 67.7429 57.8933 67.8309 61.7833L67.9849 66.0373C68.1079 71.0383 68.2329 76.0413 68.4859 81.0323C68.5999 83.2413 68.7899 85.4823 69.0649 87.6163C69.1019 87.8753 69.1119 87.9063 69.1379 88.0163C69.1589 88.1083 69.1859 88.2223 69.3029 88.2233C69.3709 88.2353 69.4369 88.2393 69.5019 88.2443L69.7659 88.2473C70.0439 88.2473 70.3279 88.2393 70.6169 88.2213C71.1939 88.1853 71.7779 88.1353 72.3649 88.0733C73.5359 87.9603 74.7259 87.8683 75.8899 87.7323C76.7049 87.6213 76.7289 87.9383 76.0589 88.4593C75.3859 88.9423 74.0819 89.6573 72.4209 89.9123C71.8349 89.9913 71.2439 90.0553 70.6339 90.0963C70.3319 90.1183 70.0149 90.1273 69.6939 90.1313C69.5909 90.1263 69.1759 90.1223 68.9289 90.0823C68.6599 90.0203 68.3959 89.9553 68.1349 89.8713C68.0389 89.7893 67.9019 89.7523 67.8399 89.6333C67.7369 89.5503 67.6389 89.4703 67.5799 89.3523C67.4459 89.1303 67.3749 88.8523 67.3109 88.5763L67.2269 88.1533L67.1869 87.9033L67.1209 87.4503C67.0419 86.8533 66.9709 86.2683 66.9309 85.6813C66.8389 84.5103 66.7739 83.3443 66.7189 82.1773C66.6109 79.8453 66.5559 77.5113 66.5369 75.1683C66.5099 71.6723 66.2789 68.0453 66.1869 64.4743C66.0859 60.5493 66.0249 56.6213 65.9879 52.6933C65.9759 50.2753 65.9639 47.8563 65.9529 45.4413C65.9529 41.7793 65.9959 38.1023 66.1229 34.4553C66.1559 33.5723 66.1919 32.6963 66.2629 31.8133L66.3249 31.1473L66.3679 30.8103C66.3889 30.6523 66.4219 30.4923 66.4529 30.3353C66.5189 30.0193 66.6239 29.7213 66.7949 29.4903C66.9749 29.2163 67.2669 29.2143 67.5639 29.2173C68.4849 29.3533 68.8539 29.4023 69.3979 29.4643C69.9139 29.5223 70.4279 29.5703 70.9419 29.6053C71.5389 29.6443 72.1209 29.6643 72.7109 29.6713C73.8049 29.6783 74.4769 29.6303 74.9169 29.5823C75.3529 29.5273 75.5669 29.5263 75.8549 29.5033C75.9889 29.4953 76.1279 29.4103 76.2409 29.3753C76.3369 29.3483 76.4009 29.3803 76.4229 29.5043C76.4479 29.6273 76.4129 29.8533 76.2459 30.0963C75.9119 30.6143 75.1369 30.9893 74.2329 31.1633C73.0919 31.3823 71.9759 31.3653 70.8629 31.3103C70.3079 31.2723 69.7539 31.2153 69.1999 31.1453C68.7199 31.0893 67.8439 30.9413 68.0329 30.9903C68.0039 30.9833 67.9959 31.0213 68.0009 31.0463C67.9969 31.0823 68.0119 31.0143 67.9959 31.1313L67.9399 31.6483C67.8739 32.3553 67.8399 33.0943 67.8079 33.8373C67.7449 35.3253 67.7159 36.8403 67.6969 38.3573C67.6539 42.2553 67.6599 46.1863 67.7139 50.1093L67.6709 50.1143Z" fill="white"/>
<path fill-rule="evenodd" clip-rule="evenodd" d="M76.651 55.8292L76.565 63.2202L76.591 65.9142C76.556 69.0822 76.521 72.2522 76.485 75.4172C76.474 76.8232 76.508 78.2352 76.554 79.6282C76.589 80.5222 76.623 81.4202 76.657 82.3162C76.664 83.1982 76.627 84.1432 76.561 84.9672C76.55 85.0782 76.52 85.1632 76.481 85.2282C76.462 85.2602 76.44 85.2872 76.416 85.3072L76.378 85.3322C76.418 85.3212 76.218 85.3872 76.2 85.3932C76.153 85.4102 76.152 85.4102 76.199 85.3942C76.408 85.3242 76.279 85.3642 76.294 85.3542C76.278 85.3552 76.263 85.3532 76.247 85.3502C76.215 85.3432 76.18 85.3282 76.144 85.3052C76.071 85.2592 75.99 85.1802 75.904 85.0582C75.572 84.5602 75.172 83.7202 75.064 82.6812C74.892 79.0192 74.835 75.3632 74.993 71.6692C75.083 69.4612 74.967 67.1662 74.96 64.9092L74.97 57.4612L74.982 52.8782C74.977 50.5642 75.004 48.2402 74.956 45.9432C74.921 44.1582 74.786 42.4082 74.703 40.6412C74.683 40.2522 74.654 39.8692 74.647 39.4752C74.616 38.0222 74.765 37.5282 75.25 37.2432C75.36 37.1772 75.472 37.0892 75.582 37.0542C75.959 36.9432 76.239 37.5342 76.327 38.5762C76.612 41.7122 76.674 45.0372 76.696 48.3722C76.695 50.8502 76.694 53.3412 76.693 55.8262L76.651 55.8292Z" fill="white"/>
<path fill-rule="evenodd" clip-rule="evenodd" d="M21.9287 77.1451L22.0277 74.5441L22.1787 71.9411C22.2087 71.3071 22.1307 70.6791 22.1717 70.0461C22.3117 67.8121 22.4837 65.5761 22.5517 63.3451C22.5747 62.3551 22.5177 61.3641 22.4847 60.3851C22.4387 59.1281 22.2047 57.8761 22.6077 56.5971C22.7187 56.1991 23.1797 56.2191 23.7477 56.5151C24.0327 56.6641 24.3527 56.8801 24.6507 57.1501C24.9647 57.4191 25.1947 57.7411 25.2497 58.1031C25.4737 59.3861 25.7007 60.6641 25.7717 61.9541C25.8077 63.2451 25.7737 64.5411 25.6417 65.8481C25.4797 67.4111 25.7477 69.0171 25.7907 70.6051C25.8287 72.3521 25.8517 74.1001 25.8027 75.8511L25.7557 79.0821C25.7567 80.7121 25.6987 82.3511 25.8067 83.9661C25.8847 85.2221 26.2217 86.4461 26.3867 87.6941C26.4217 87.9691 26.4907 88.2371 26.5027 88.5151C26.5567 89.0281 26.3657 89.3781 26.1837 89.6181C25.9787 89.8591 25.6787 89.9981 25.2327 90.1091C25.0297 90.1601 24.8317 90.2261 24.6357 90.2551C23.9817 90.3521 23.3897 89.9371 22.9977 89.2101C22.5057 88.1241 22.2717 87.0031 22.1307 85.8591C21.9857 84.7161 21.9217 83.5511 21.8797 82.3821C21.8167 80.6461 21.8497 78.8961 21.8317 77.1511L21.9287 77.1451Z" fill="white"/>
<path fill-rule="evenodd" clip-rule="evenodd" d="M44.3301 72.0645L44.4191 68.6435L44.5561 65.2215C44.5841 64.3885 44.5161 63.5595 44.5521 62.7275C44.6791 59.7935 44.8351 56.8575 44.8951 53.9255C44.9181 52.6245 44.8641 51.3195 44.8361 50.0305C44.7921 48.3765 44.5881 46.7185 44.9231 45.0615C45.0151 44.5445 45.4221 44.5815 45.9291 44.9895C46.1841 45.1935 46.4711 45.4925 46.7371 45.8605C47.0151 46.2255 47.2221 46.6585 47.2721 47.1375C47.4761 48.8325 47.6771 50.5205 47.7401 52.2175C47.7691 53.9155 47.7401 55.6185 47.6211 57.3305C47.4771 59.3785 47.7101 61.4985 47.7471 63.5865C47.7781 65.8835 47.7951 68.1825 47.7511 70.4815L47.7071 74.7255C47.7071 76.8665 47.6561 79.0205 47.7561 81.1435C47.8251 82.7945 48.1261 84.4085 48.2791 86.0425C48.3091 86.4025 48.3711 86.7545 48.3831 87.1185C48.4321 87.7915 48.2711 88.2415 48.1081 88.5585C47.9271 88.8735 47.6631 89.0555 47.2701 89.2005C47.0911 89.2675 46.9161 89.3545 46.7431 89.3925C46.1671 89.5205 45.6431 88.9745 45.2951 88.0095C44.4391 85.1205 44.3941 82.0485 44.2861 78.9645C44.2301 76.6735 44.2581 74.3685 44.2441 72.0695L44.3301 72.0645Z" fill="white"/>
<path fill-rule="evenodd" clip-rule="evenodd" d="M66.7407 66.2296L66.8367 61.7576L66.9807 57.2856C67.0107 56.1976 66.9447 55.1116 66.9827 54.0246C67.1157 50.1916 67.2787 46.3566 67.3467 42.5246C67.3717 40.8246 67.3217 39.1166 67.2957 37.4316C67.2547 35.2696 67.0557 33.0916 67.3837 30.9376C67.4717 30.2676 67.8797 30.3206 68.3897 30.8676C68.6447 31.1386 68.9397 31.5446 69.2017 32.0266C69.4797 32.5086 69.6867 33.0806 69.7387 33.7076C69.9377 35.9226 70.1367 38.1326 70.1957 40.3506C70.2207 42.5696 70.1877 44.7936 70.0647 47.0286C69.9157 49.7016 70.1437 52.4756 70.1757 55.2066C70.2017 58.2086 70.2137 61.2116 70.1647 64.2156L70.1137 69.7616C70.1107 72.5596 70.0557 75.3726 70.1537 78.1486C70.2207 80.3076 70.5227 82.4196 70.6757 84.5536C70.7077 85.0226 70.7697 85.4836 70.7817 85.9586C70.7867 87.7166 70.4327 88.2926 69.6717 88.6696C69.4927 88.7556 69.3187 88.8696 69.1457 88.9186C68.5687 89.0856 68.0467 88.3756 67.6947 87.1026C66.8327 83.3086 66.7907 79.2886 66.6857 75.2526C66.6327 72.2546 66.6647 69.2416 66.6547 66.2346L66.7407 66.2296Z" fill="white"/>
<path fill-rule="evenodd" clip-rule="evenodd" d="M101.663 89.2329C101.708 89.2159 101.764 89.1879 101.827 89.1459C101.858 89.1249 101.892 89.1009 101.926 89.0719C101.977 89.0349 101.977 89.0199 101.947 89.0139L101.78 88.9259L101.661 88.8679C101.695 88.8719 101.348 88.7619 101.17 88.7029C100.565 88.5119 99.9471 88.3579 99.3491 88.1429C97.2461 87.3709 95.2081 86.4659 93.1751 85.5519C92.2641 85.1579 91.3521 84.7639 90.4491 84.3729C89.2891 83.8519 88.1051 83.3439 87.1411 82.2709C86.8441 81.9169 87.2011 81.7369 87.7001 81.6479C88.1801 81.5659 88.8391 81.4899 89.4581 81.7559C91.6621 82.6929 93.9571 83.7569 96.2581 84.8299C97.6341 85.4899 99.1701 85.8989 100.64 86.3789C100.936 86.4799 101.235 86.5739 101.536 86.6629L101.986 86.7999C102.073 86.8249 102.107 86.8419 102.239 86.8739L102.624 86.9669C103.152 87.0829 103.608 87.2329 104.172 87.3179L105.768 87.5869L105.716 87.8629L105.412 88.2769C105.209 88.5599 105.012 88.7959 104.814 89.0539C104.571 89.3459 104.324 89.6359 104.059 89.9189L103.187 90.7449C102.682 91.1779 102.323 91.4619 101.881 91.8159C100.598 92.8269 99.2671 93.7559 98.0151 94.7509C97.0341 95.5149 96.1561 96.3679 95.2421 97.1839C95.0411 97.3639 94.8591 97.5569 94.6501 97.7299C93.8751 98.3699 93.5361 98.4519 93.0001 98.1289C92.8791 98.0559 92.7451 97.9929 92.6401 97.9069C92.2821 97.6169 92.3721 97.0679 92.8701 96.4929C94.3611 94.8089 96.1421 93.2879 98.0061 91.9279L100.061 90.4089L101.059 89.6439L101.539 89.2539C101.622 89.1859 101.584 89.2279 101.611 89.2069L101.663 89.2329Z" fill="white"/>
<path fill-rule="evenodd" clip-rule="evenodd" d="M60.4326 26.0553C57.1666 27.7833 53.7756 29.2493 50.3236 30.5123C49.0566 30.9543 47.8166 31.4643 46.5476 31.8913C42.0196 33.2483 37.4276 34.3193 32.7856 35.0453L29.6866 35.4913C28.6536 35.6313 27.6146 35.7203 26.5856 35.8233C25.2616 35.9303 23.9296 36.0123 22.5956 36.0243C21.2586 36.0243 19.9256 35.9943 18.5836 35.6973C17.7446 35.4963 17.9276 35.3823 18.6386 35.2813C18.9866 35.2463 19.4786 35.1503 20.0726 35.0453C20.6586 34.9733 21.3466 34.8723 22.0936 34.8193C23.4126 34.7663 24.7386 34.5573 26.0556 34.4253L28.0286 34.1283C28.6886 34.0513 29.3486 33.9713 30.0046 33.8503C32.6366 33.4493 35.2596 32.9423 37.8866 32.3773C41.0286 31.6923 44.2026 30.5953 47.2706 29.4283C48.9456 28.7523 50.6636 28.1793 52.2876 27.3813C53.9186 26.6063 55.6136 25.9563 57.1856 25.0613L60.1396 23.5033C61.1396 23.0083 62.0446 22.3523 62.9986 21.7813C65.9066 20.0673 68.6146 18.0133 71.2366 15.9363C72.2026 15.0623 73.1316 14.1663 74.0476 13.2673L75.4226 11.9263C75.8836 11.4833 76.2806 10.9723 76.7166 10.5033C77.0936 10.0813 77.4436 9.6513 77.8326 9.2373C79.2766 7.7013 79.8756 7.3473 80.7116 7.4843C80.9026 7.5163 81.1156 7.5223 81.2766 7.5843C81.8206 7.7933 81.5426 8.7203 80.5596 9.9803C79.0856 11.8273 77.5846 13.7763 75.7166 15.3973C74.8066 16.2323 73.8786 17.0623 72.9396 17.8883C71.9906 18.7003 70.9466 19.4023 69.9456 20.1593L67.6816 21.8053C66.9206 22.3473 66.0996 22.7983 65.3096 23.2973C63.7046 24.2553 62.1496 25.2943 60.4666 26.1063L60.4326 26.0553Z" fill="white"/>
<path fill-rule="evenodd" clip-rule="evenodd" d="M84.7358 3.567L84.7598 3.43L84.7838 3.356C84.8018 3.296 84.8088 3.245 84.8218 3.172C84.8328 3.091 84.7458 3.158 84.6918 3.16C84.6058 3.193 84.5948 3.18 84.4098 3.274C83.9248 3.537 83.4528 3.841 82.9438 4.081C81.1408 4.919 79.2188 5.518 77.2778 5.815C76.4178 5.955 75.5588 6.096 74.7068 6.2C73.6158 6.359 72.5058 6.434 71.4088 6.273C71.0668 6.223 71.1148 5.908 71.3948 5.57C71.6738 5.234 72.1758 4.857 72.7728 4.774C74.8998 4.482 76.9448 4.123 79.0298 3.687C80.2868 3.427 81.4688 2.804 82.6338 2.197L83.3698 1.801L84.4598 1.184C84.8598 0.956 85.2488 0.745 85.6278 0.548C85.9938 0.367 86.4228 0.104 86.7388 0L86.6088 1.788L86.4708 3.816L86.3608 5.21C86.2408 6.622 85.9938 8.043 85.6488 9.432C85.3748 10.508 85.0878 11.586 84.6188 12.616C84.5228 12.846 84.4278 13.072 84.2998 13.289C83.8438 14.104 83.5218 14.245 83.0278 14.107C82.9128 14.073 82.7908 14.05 82.6868 14C82.3368 13.828 82.2888 13.353 82.5488 12.811C83.2628 11.158 83.8948 9.487 84.2268 7.629C84.3498 6.941 84.4608 6.243 84.5318 5.525C84.5768 5.17 84.6008 4.804 84.6348 4.443L84.6918 3.575L84.7358 3.567Z" fill="white"/>
</svg>
