<svg width="40" height="40" viewBox="0 0 40 40" fill="none" xmlns="http://www.w3.org/2000/svg">
<path d="M27.3981 6.66669C28.8911 6.66669 30.1568 7.76447 30.368 9.24242L31.6667 18.3334H8.33333L9.63204 9.24242C9.84317 7.76448 11.1089 6.66669 12.6019 6.66669H27.3981Z" fill="url(#paint0_linear_201_38)"/>
<path d="M31.6667 18.3334H35M31.6667 18.3334L30.368 9.24242C30.1568 7.76447 28.8911 6.66669 27.3981 6.66669H12.6019C11.1089 6.66669 9.84317 7.76448 9.63204 9.24242L8.33333 18.3334M31.6667 18.3334H8.33333M5 18.3334H8.33333M16.6524 27.9529C16.458 25.3692 14.3001 23.3334 11.6667 23.3334C8.90524 23.3334 6.66667 25.5719 6.66667 28.3334C6.66667 31.0948 8.90524 33.3334 11.6667 33.3334C14.4281 33.3334 16.6667 31.0948 16.6667 28.3334C16.6667 28.2054 16.6619 28.0785 16.6524 27.9529ZM16.6524 27.9529C18.5513 26.2382 21.4485 26.2379 23.3476 27.9522M23.3476 27.9522C23.3382 28.078 23.3333 28.2051 23.3333 28.3334C23.3333 31.0948 25.5719 33.3334 28.3333 33.3334C31.0948 33.3334 33.3333 31.0948 33.3333 28.3334C33.3333 25.5719 31.0948 23.3334 28.3333 23.3334C25.7001 23.3334 23.5423 25.3689 23.3476 27.9522Z" stroke="white" stroke-width="2" stroke-linecap="round" stroke-linejoin="round"/>
<defs>
<linearGradient id="paint0_linear_201_38" x1="20" y1="6.66669" x2="20" y2="41.4997" gradientUnits="userSpaceOnUse">
<stop stop-color="white" stop-opacity="0"/>
<stop offset="1" stop-color="white"/>
</linearGradient>
</defs>
</svg>
