<svg width="1440" height="1353" viewBox="0 0 1440 1353" fill="none" xmlns="http://www.w3.org/2000/svg">
<g clip-path="url(#clip0_208_8144)">
<g opacity="0.6" filter="url(#filter0_f_208_8144)">
<ellipse cx="442.092" cy="609.221" rx="543.146" ry="265.105" fill="#5E19F0"/>
</g>
<g opacity="0.6" filter="url(#filter1_f_208_8144)">
<ellipse cx="21.9406" cy="712.239" rx="362.41" ry="265.105" fill="#3719F0"/>
</g>
<g filter="url(#filter2_f_208_8144)">
<path d="M252.288 569.446C75.1801 568.397 -158.573 622.948 -128.458 940.813C365.34 962.144 1360.39 1004.39 1390.22 1002.71C1427.51 1000.61 1713.61 719.986 1724.36 712.118C1735.12 704.25 1783.16 632.914 1474.83 449.328C1166.51 265.742 906.224 406.972 725.531 499.683C544.839 592.394 429.395 570.495 252.288 569.446Z" fill="#6849E1"/>
</g>
<mask id="mask0_208_8144" style="mask-type:alpha" maskUnits="userSpaceOnUse" x="664" y="349" width="802" height="509">
<ellipse cx="416.25" cy="227.293" rx="416.25" ry="227.293" transform="matrix(0.880987 -0.473141 0.708396 0.705815 537.141 639.642)" fill="url(#paint0_radial_208_8144)"/>
</mask>
<g mask="url(#mask0_208_8144)">
<path d="M666.472 781.079C609.718 797.014 597.248 813.336 563.677 851.593L1109.96 1000.05C1249.15 845.137 1490.41 548.475 1394.61 520.429C1294.37 491.083 1141.55 503.306 1047.83 536.899C954.11 570.492 878.583 682.648 843.1 722.564C810.226 759.545 723.226 765.145 666.472 781.079Z" fill="#7C7AEA"/>
<g filter="url(#filter3_f_208_8144)">
<path d="M666.472 780.392C609.718 796.326 597.248 812.649 563.677 850.905L1109.96 999.366C1249.15 844.45 1456.12 502.646 1360.32 474.6C1284.57 452.423 1146.89 505.728 1076.31 536.358C1053.49 546.261 1069.64 557.483 1055.34 558.189C951.211 563.331 878.583 681.96 843.1 721.876C810.226 758.857 723.226 764.457 666.472 780.392Z" fill="#7C7AEA"/>
</g>
<g filter="url(#filter4_f_208_8144)">
<path d="M651.449 775.585C594.695 791.519 582.225 807.842 548.654 846.099L1109.96 1000.05C1249.15 845.137 1370.23 531.992 1274.43 503.946C1184.57 477.639 1132.54 508.874 1059.88 539.398C1051.48 542.925 1065.05 544.409 1055.34 547.888C961.62 581.481 863.56 677.154 828.077 717.07C795.204 754.051 708.203 759.651 651.449 775.585Z" fill="#7C7AEA"/>
</g>
<g filter="url(#filter5_f_208_8144)">
<path d="M636.427 770.095C579.673 786.029 567.203 802.352 533.632 840.608L1109.96 1000.06C1249.15 845.142 1512.94 493.535 1417.14 465.49C1336.29 441.819 1193.25 499.327 1104.47 524.677C1083.19 530.755 1070.65 542.769 1052.52 549.266C958.803 582.859 848.538 671.663 813.055 711.579C780.181 748.56 693.181 754.16 636.427 770.095Z" fill="#7C7AEA"/>
</g>
<g filter="url(#filter6_f_208_8144)">
<path d="M588.544 755.085C531.79 771.019 519.32 787.342 485.749 825.599L1077.09 996.037C1216.29 841.121 1337.37 527.976 1241.57 499.93C1167.27 478.179 1110.78 522.933 1075.37 539.024C1063.01 544.643 1098.47 554.271 1071.61 554.271C967.867 554.271 987.48 634.152 816.707 686.823C761.141 703.962 645.298 739.151 588.544 755.085Z" fill="#7C7AEA"/>
</g>
</g>
<g opacity="0.6" filter="url(#filter7_f_208_8144)">
<ellipse cx="1172.55" cy="702.282" rx="154.447" ry="112.979" fill="#B819F0"/>
</g>
<g opacity="0.3" filter="url(#filter8_f_208_8144)">
<ellipse cx="489.976" cy="705.028" rx="345.98" ry="112.979" fill="black"/>
</g>
<g opacity="0.6" filter="url(#filter9_f_208_8144)">
<ellipse cx="137.963" cy="39.2716" rx="137.963" ry="39.2716" transform="matrix(0.841742 -0.539881 0.76786 0.640617 666.956 721.786)" fill="#28009B"/>
</g>
<g opacity="0.5">
<path d="M387.422 380.292C371.395 370.739 363.148 359.148 370.162 341.778C393.962 283.167 468.453 233.828 455.878 169.929C449.368 137.122 417.017 108.558 370.255 86.8759C149.044 -15.3626 -64.2293 30.6964 -129.156 61.6644C-195.698 93.3871 -162.752 153.742 -129.683 192.757C-88.9701 240.838 -36.9243 288.674 -32.6137 341.94C-28.0748 398.182 -0.126623 526.116 41.2645 581.445C70.4677 620.482 144.446 674.65 220.68 680.536C296.913 686.423 373.449 645.877 432.14 620.904C490.83 595.931 728.651 708.648 757.155 670.949C795.482 620.256 716.574 558.512 659.817 519.027C602.261 479 535.21 443.198 462.104 411.486C435.006 399.799 406.003 391.402 387.422 380.292Z" stroke="white" stroke-opacity="0.08" stroke-width="3"/>
<path d="M-138.48 52.39C-209.349 86.1517 -174.146 150.478 -139.014 192.025C-95.7521 243.229 -40.1246 294.19 -35.6839 350.946C-30.8958 410.846 -15.5509 534.208 28.6001 593.152C59.7081 634.788 138.367 687.367 219.685 693.646C292.359 699.258 365.062 663.48 422.536 641.069C481.758 617.995 697.282 714.543 729.266 678.977C773.415 629.728 713.375 569.078 668.756 527.437C624.019 485.628 566.741 447.644 500.907 413.635C476.507 401.043 449.95 391.482 432.102 379.636C416.766 369.582 408.112 357.807 412.068 340.932C418.097 315.508 430.382 291.686 440.855 268.043C449.834 247.881 457.321 227.763 457.578 206.528C457.725 196.232 455.555 185.596 451.122 174.307C438.904 143.638 404.784 115.993 356.399 93.5589C284.486 60.3586 213.51 39.7758 147.079 28.973C22.6061 8.65424 -88.314 28.4562 -138.48 52.39Z" stroke="white" stroke-opacity="0.08" stroke-width="3"/>
<path d="M-147.961 43.1518C-223.151 78.9499 -185.841 147.231 -148.503 191.318C-102.549 245.653 -43.6386 299.711 -38.7752 359.977C-33.7384 423.53 -30.996 542.405 15.7639 604.947C48.7874 649.101 132.251 700.183 218.354 706.832C287.616 712.18 356.502 681.085 412.6 661.301C472.499 640.133 665.878 720.624 700.911 687.076C751.021 639.28 709.522 579.779 677.176 535.997C644.936 492.463 597.875 452.256 539.307 415.952C517.735 402.548 493.621 391.822 476.374 379.151C461.741 368.519 452.547 356.47 453.437 340.168C454.814 315.041 459.474 291.524 461.988 268.401C464.182 248.847 464.976 229.664 459.876 209.386C457.384 199.771 452.603 189.66 445.868 178.839C428.375 150.418 391.915 123.566 342.204 100.403C272.436 67.946 203.457 44.6528 137.147 29.9504C21.9846 4.28907 -90.8746 15.9375 -147.961 43.1518Z" stroke="white" stroke-opacity="0.08" stroke-width="3"/>
<path d="M-157.447 33.9588C-236.966 71.8711 -197.538 144.026 -158.156 190.72C-109.514 248.185 -47.1899 305.429 -42.1834 369.101C-36.7517 436.317 -46.7297 550.625 2.63696 616.764C37.5741 663.434 125.693 713.013 216.867 720.053C282.577 725.127 347.93 698.81 402.669 681.569C463.23 662.383 634.521 726.684 672.733 695.239C728.943 648.903 705.803 590.614 685.742 544.534C666.13 499.287 629.127 456.847 577.829 418.171C558.934 403.943 537.408 392.066 520.746 378.649C506.816 367.438 497.069 355.194 495.042 339.475C491.772 314.643 488.816 291.431 483.396 268.747C478.799 249.877 473.068 231.558 462.471 212.225C457.502 203.223 450.087 193.792 441.078 183.28C418.464 157.114 379.666 131.055 328.484 107.152C260.682 75.5809 193.816 49.7485 127.536 30.8246C21.228 0.669957 -93.4471 3.46707 -157.447 33.9588Z" stroke="white" stroke-opacity="0.08" stroke-width="3"/>
<path d="M-166.927 24.8048C-250.764 64.7539 -209.23 140.865 -167.644 190.1C-116.472 250.763 -50.7072 311.037 -45.2783 378.219C-39.598 449.088 -62.1503 558.937 -10.0166 628.608C26.821 677.874 119.756 725.889 215.843 733.388C278.008 738.188 339.971 716.73 393.089 701.848C454.449 684.731 603.675 732.944 644.959 703.349C707.56 658.49 702.304 601.452 694.659 553.083C687.342 506.255 660.542 461.512 616.489 420.542C600.414 405.502 581.324 392.462 565.245 378.299C552.003 366.588 541.717 354.069 536.643 338.841C528.453 314.2 518.3 291.481 504.807 269.222C493.732 250.978 481.191 233.499 464.928 215.253C457.486 206.862 447.451 198.031 435.998 187.974C408.572 164.001 366.984 138.775 314.474 114.141C248.646 83.3744 183.819 55.3969 117.603 32.0182C20.252 -2.45878 -95.8573 -9.03113 -166.927 24.8048Z" stroke="white" stroke-opacity="0.08" stroke-width="3"/>
<path d="M-176.395 15.685C-264.557 57.6755 -220.913 137.751 -177.118 189.532C-123.252 253.334 -54.0533 316.724 -48.4805 387.322C-42.5509 461.854 -77.8024 567.173 -22.9234 640.542C15.832 692.332 113.432 738.859 214.602 746.751C273.235 751.278 331.819 734.672 383.313 722.223C445.627 707.18 572.842 739.249 616.883 711.633C686.009 668.332 698.196 612.421 703.249 561.781C708.067 513.355 691.604 466.315 654.811 422.889C641.39 407.102 624.892 392.831 609.553 377.852C596.996 365.64 586.024 352.832 578.183 338.194C565.062 313.818 547.905 291.363 526.17 269.671C508.608 252.129 489.553 235.508 467.509 218.178C457.74 210.407 445.247 202.106 431.204 192.49C399.271 170.649 354.717 146.398 300.593 120.929C236.728 90.9606 173.434 61.1161 107.633 32.912C18.7886 -5.12479 -98.4101 -21.4303 -176.395 15.685Z" stroke="white" stroke-opacity="0.08" stroke-width="3"/>
<path d="M-185.683 6.68594C-278.194 50.7289 -232.415 134.711 -186.547 189.04C-129.972 255.997 -57.4666 322.508 -51.4694 396.642C-45.1427 474.866 -93.0977 575.689 -35.5914 652.683C5.092 707.011 107.516 752.153 213.516 760.338C268.783 764.606 323.846 752.912 373.744 742.812C437.015 729.918 542.413 745.87 589.235 720.145C665.037 678.479 694.544 623.512 712.289 570.586C729.105 520.459 723.117 471.122 693.688 425.397C682.93 408.78 668.858 393.342 654.242 377.623C642.379 364.828 630.704 351.807 620.096 337.753C601.896 313.625 578.011 291.529 547.914 270.23C523.876 253.305 498.171 237.447 470.461 221.195C458.217 214.031 443.263 206.258 426.613 197.159C390.341 177.296 342.502 154.069 287.043 127.781C225.121 98.6025 162.862 67.0857 98.0703 33.9382C16.7982 -7.57778 -100.897 -33.8076 -185.683 6.68594Z" stroke="white" stroke-opacity="0.08" stroke-width="3"/>
<path d="M-195.075 -2.38644C-291.963 43.7944 -243.91 131.785 -195.813 188.683C-136.52 258.804 -60.5513 328.459 -54.4212 406.116C-47.8425 488.034 -108.376 584.465 -48.0871 665.108C-5.62883 722.049 101.663 765.656 212.789 774.237C264.551 778.234 316.367 771.63 364.705 763.721C429.063 753.142 512.527 752.889 562.151 728.972C644.614 689.093 691.325 634.892 721.752 579.752C750.424 527.905 754.896 476.342 732.839 428.233C724.744 410.784 713.095 394.176 699.198 377.714C687.869 364.401 675.502 351.087 662.139 337.536C638.83 313.809 608.122 291.743 569.763 271.08C539.404 254.703 507.033 239.685 473.492 224.576C458.918 218.029 441.515 210.705 422.109 202.11C381.505 184.144 330.36 162.015 273.544 134.983C213.582 106.432 151.722 73.4292 88.5545 35.1424C14.4034 -9.8929 -103.342 -46.1746 -195.075 -2.38644Z" stroke="white" stroke-opacity="0.08" stroke-width="3"/>
<path d="M476.669 227.6C390.811 197.046 231.586 145.116 79.0893 36.2858C11.2954 -12.173 -105.62 -58.5232 -204.457 -11.4469C-305.719 36.7979 -255.532 128.796 -205.349 188.256C-143.478 261.538 -64.0366 334.343 -57.4805 415.555C-50.5029 501.186 -123.756 593.143 -60.8246 677.433C-16.4271 736.925 95.7304 779.079 211.849 788.045C327.967 797.012 445.189 775.599 534.601 737.604C624.027 699.53 687.528 645.977 730.935 588.64C818.94 472.222 786.497 355.596 591.625 271.566C554.942 255.734 515.899 241.555 476.669 227.6Z" stroke="white" stroke-opacity="0.08" stroke-width="3"/>
</g>
</g>
<defs>
<filter id="filter0_f_208_8144" x="-513.054" y="-67.8839" width="1910.29" height="1354.21" filterUnits="userSpaceOnUse" color-interpolation-filters="sRGB">
<feFlood flood-opacity="0" result="BackgroundImageFix"/>
<feBlend mode="normal" in="SourceGraphic" in2="BackgroundImageFix" result="shape"/>
<feGaussianBlur stdDeviation="206" result="effect1_foregroundBlur_208_8144"/>
</filter>
<filter id="filter1_f_208_8144" x="-752.47" y="35.1337" width="1548.82" height="1354.21" filterUnits="userSpaceOnUse" color-interpolation-filters="sRGB">
<feFlood flood-opacity="0" result="BackgroundImageFix"/>
<feBlend mode="normal" in="SourceGraphic" in2="BackgroundImageFix" result="shape"/>
<feGaussianBlur stdDeviation="206" result="effect1_foregroundBlur_208_8144"/>
</filter>
<filter id="filter2_f_208_8144" x="-287.099" y="203.911" width="2176.63" height="954.846" filterUnits="userSpaceOnUse" color-interpolation-filters="sRGB">
<feFlood flood-opacity="0" result="BackgroundImageFix"/>
<feBlend mode="normal" in="SourceGraphic" in2="BackgroundImageFix" result="shape"/>
<feGaussianBlur stdDeviation="78" result="effect1_foregroundBlur_208_8144"/>
</filter>
<filter id="filter3_f_208_8144" x="543.677" y="449.347" width="861.113" height="570.019" filterUnits="userSpaceOnUse" color-interpolation-filters="sRGB">
<feFlood flood-opacity="0" result="BackgroundImageFix"/>
<feBlend mode="normal" in="SourceGraphic" in2="BackgroundImageFix" result="shape"/>
<feGaussianBlur stdDeviation="10" result="effect1_foregroundBlur_208_8144"/>
</filter>
<filter id="filter4_f_208_8144" x="520.654" y="466.071" width="816.068" height="561.983" filterUnits="userSpaceOnUse" color-interpolation-filters="sRGB">
<feFlood flood-opacity="0" result="BackgroundImageFix"/>
<feBlend mode="normal" in="SourceGraphic" in2="BackgroundImageFix" result="shape"/>
<feGaussianBlur stdDeviation="14" result="effect1_foregroundBlur_208_8144"/>
</filter>
<filter id="filter5_f_208_8144" x="497.632" y="423.894" width="975.985" height="612.164" filterUnits="userSpaceOnUse" color-interpolation-filters="sRGB">
<feFlood flood-opacity="0" result="BackgroundImageFix"/>
<feBlend mode="normal" in="SourceGraphic" in2="BackgroundImageFix" result="shape"/>
<feGaussianBlur stdDeviation="18" result="effect1_foregroundBlur_208_8144"/>
</filter>
<filter id="filter6_f_208_8144" x="433.749" y="442.082" width="894.111" height="605.955" filterUnits="userSpaceOnUse" color-interpolation-filters="sRGB">
<feFlood flood-opacity="0" result="BackgroundImageFix"/>
<feBlend mode="normal" in="SourceGraphic" in2="BackgroundImageFix" result="shape"/>
<feGaussianBlur stdDeviation="26" result="effect1_foregroundBlur_208_8144"/>
</filter>
<filter id="filter7_f_208_8144" x="806.099" y="377.304" width="732.894" height="649.958" filterUnits="userSpaceOnUse" color-interpolation-filters="sRGB">
<feFlood flood-opacity="0" result="BackgroundImageFix"/>
<feBlend mode="normal" in="SourceGraphic" in2="BackgroundImageFix" result="shape"/>
<feGaussianBlur stdDeviation="106" result="effect1_foregroundBlur_208_8144"/>
</filter>
<filter id="filter8_f_208_8144" x="-68.0042" y="380.05" width="1115.96" height="649.958" filterUnits="userSpaceOnUse" color-interpolation-filters="sRGB">
<feFlood flood-opacity="0" result="BackgroundImageFix"/>
<feBlend mode="normal" in="SourceGraphic" in2="BackgroundImageFix" result="shape"/>
<feGaussianBlur stdDeviation="106" result="effect1_foregroundBlur_208_8144"/>
</filter>
<filter id="filter9_f_208_8144" x="481.23" y="381.821" width="664.02" height="581.278" filterUnits="userSpaceOnUse" color-interpolation-filters="sRGB">
<feFlood flood-opacity="0" result="BackgroundImageFix"/>
<feBlend mode="normal" in="SourceGraphic" in2="BackgroundImageFix" result="shape"/>
<feGaussianBlur stdDeviation="106" result="effect1_foregroundBlur_208_8144"/>
</filter>
<radialGradient id="paint0_radial_208_8144" cx="0" cy="0" r="1" gradientUnits="userSpaceOnUse" gradientTransform="translate(487.587 190.897) rotate(105.138) scale(273.169 476.01)">
<stop offset="0.120131" stop-color="#C4C4C4"/>
<stop offset="0.692585" stop-color="#C4C4C4" stop-opacity="0"/>
</radialGradient>
<clipPath id="clip0_208_8144">
<rect width="1440" height="1353" fill="white"/>
</clipPath>
</defs>
</svg>
