<svg width="128" height="93" viewBox="0 0 128 93" fill="none" xmlns="http://www.w3.org/2000/svg">
<path fill-rule="evenodd" clip-rule="evenodd" d="M72.3314 29.4931L67.3114 30.3421L65.4884 30.6991C63.3374 31.0821 61.1834 31.4661 59.0344 31.8481C58.0814 32.0391 57.1274 32.2301 56.1824 32.4201C54.9634 32.6681 53.7784 32.9821 52.4734 33.0191C52.0574 33.0231 52.1364 32.7841 52.4384 32.5231C52.7274 32.2781 53.2644 31.9461 53.9534 31.8161C56.4064 31.3091 58.8794 30.7991 61.3994 30.4261C62.9064 30.1981 64.4474 29.8291 65.9774 29.5371L71.0364 28.6161L74.1564 28.0821C75.7354 27.8311 77.3214 27.5791 78.8894 27.3301C80.1104 27.1441 81.2954 26.8841 82.5194 26.7271L83.3224 26.6101C84.3424 26.5321 84.6764 26.6071 84.8944 26.9091C84.9444 26.9781 85.0094 27.0471 85.0374 27.1181C85.1314 27.3571 84.7284 27.5741 84.0194 27.6711C81.8214 28.0101 79.6294 28.3471 77.3964 28.6921C75.7144 28.9671 74.0244 29.2431 72.3384 29.5191L72.3314 29.4931Z" fill="white"/>
<path fill-rule="evenodd" clip-rule="evenodd" d="M28.7416 47.9676C30.6796 48.9586 32.6316 49.9286 34.5956 50.8746L36.7626 51.8726C39.2926 53.0886 41.8246 54.3056 44.3526 55.5206C45.4766 56.0606 46.6186 56.5766 47.7446 57.0906C49.1906 57.7576 50.6716 58.3656 51.9956 59.3356C52.4106 59.6316 52.2346 59.7556 51.7606 59.7346C51.5216 59.7256 51.2156 59.6786 50.8626 59.6006C50.5006 59.5236 50.0816 59.4336 49.6786 59.2336C46.7616 57.9006 43.7496 56.6886 40.8376 55.1996C39.0886 54.3236 37.1986 53.5636 35.3776 52.7346C33.3756 51.8196 31.3846 50.8796 29.3986 49.9266L25.7436 48.1406C23.9006 47.2346 22.0756 46.2696 20.2566 45.3446C18.8486 44.6116 17.4246 43.9686 16.0316 43.2226C15.7236 43.0586 15.4076 42.9286 15.1166 42.7276C14.0156 42.0226 13.7436 41.6796 13.7276 41.2066C13.7236 41.0996 13.7026 40.9836 13.7196 40.8926C13.7726 40.5986 14.3706 40.6466 15.2186 41.0406C17.7296 42.2116 20.2646 43.6316 22.8956 44.9496C24.8346 45.9496 26.7846 46.9646 28.7556 47.9326L28.7416 47.9676Z" fill="white"/>
<path fill-rule="evenodd" clip-rule="evenodd" d="M51.7495 41.6893C51.6545 42.7063 51.5595 43.7253 51.4645 44.7403C51.4335 45.1113 51.4405 45.4833 51.4055 45.8543C51.2865 47.1613 51.1665 48.4743 51.0465 49.7783C51.0035 50.3583 50.9795 50.9433 50.9725 51.5203C50.9635 52.2603 50.9945 53.0073 50.8665 53.7383C50.7925 54.2003 49.8525 53.6103 49.8125 52.7423C49.7675 51.2173 49.8055 49.7023 50.0255 48.1793C50.1505 47.2693 50.1225 46.3153 50.1755 45.3813L50.3755 42.3013L50.5105 40.4063C50.5755 39.4503 50.6595 38.4903 50.6865 37.5383C50.7045 36.7983 50.6565 36.0703 50.6505 35.3363C50.6495 35.1743 50.6375 35.0153 50.6435 34.8523C50.6525 34.5513 50.6875 34.3463 50.7575 34.2103C50.7925 34.1423 50.8365 34.0893 50.8935 34.0473C50.9545 33.9463 51.0545 33.8623 51.1425 33.8603C51.2245 33.8513 51.2805 33.8743 51.3085 33.9253C51.3515 34.0153 51.2575 33.8043 51.2995 33.9003C51.3735 34.0663 51.3715 34.0553 51.3955 34.0903C51.4365 34.1493 51.5295 34.2003 51.6185 34.1623C51.7075 34.0703 51.7205 34.1633 51.7555 34.2523C51.7855 34.3373 51.8075 34.4343 51.8215 34.5433C51.9945 35.8463 52.0095 37.2293 51.9475 38.6073C51.9085 39.6323 51.8495 40.6623 51.7835 41.6893H51.7495Z" fill="white"/>
<path fill-rule="evenodd" clip-rule="evenodd" d="M32.1766 35.3328C32.1406 36.2698 32.1196 37.2118 32.1126 38.1538C32.1206 38.4988 32.1296 38.8368 32.1376 39.1838C32.1196 40.3968 32.1006 41.6188 32.0826 42.8298C32.0776 43.3698 32.0966 43.9138 32.1196 44.4508C32.1386 45.1438 32.2186 45.8398 32.0326 46.5558C31.9776 46.7768 31.7376 46.7058 31.5086 46.5018C31.2846 46.2968 31.0636 45.9818 31.0526 45.5978C31.0306 44.2408 30.9666 42.8368 31.0466 41.4228C31.0996 40.5758 31.0106 39.6978 30.9966 38.8318C30.9836 37.8778 30.9876 36.9238 30.9946 35.9688C31.0046 35.3808 31.0146 34.7918 31.0246 34.2058C31.0536 33.3138 31.0826 32.4208 31.1126 31.5368C31.1256 30.8488 31.0766 30.1678 31.1106 29.4828C31.1136 29.3328 31.1146 29.1838 31.1316 29.0318C31.1946 28.4698 31.2916 28.2988 31.5736 28.2138C31.6376 28.1948 31.7026 28.1668 31.7646 28.1598C31.9746 28.1338 32.1246 28.3798 32.1606 28.7868C32.2856 29.9908 32.2766 31.2378 32.2556 32.5018C32.2386 33.4418 32.2226 34.3878 32.2066 35.3318L32.1766 35.3328Z" fill="white"/>
<path fill-rule="evenodd" clip-rule="evenodd" d="M58.2714 2.5033C58.9694 2.2793 59.6704 2.1213 60.3734 1.9753C60.6294 1.9213 60.8724 1.8223 61.1314 1.7833C62.0434 1.6333 62.9724 1.5613 63.8864 1.4443C64.2944 1.4003 64.6944 1.3183 65.0944 1.2603C65.6094 1.1913 66.1294 1.1253 66.6644 1.1463C66.8304 1.1523 66.8014 1.1223 66.6754 1.1803C66.5464 1.2293 66.3424 1.4443 66.0784 1.6053C65.1534 2.2163 64.1944 2.6633 63.1554 2.8673C62.5304 2.9743 61.9274 3.2553 61.3054 3.4223C60.6234 3.6083 59.9274 3.7583 59.2414 3.9213C58.8184 4.0203 58.3964 4.1183 57.9924 4.2353C57.6804 4.3363 57.4234 4.3973 57.2814 4.5323C57.1154 4.6753 57.0124 4.9413 56.9584 5.2323C56.8824 5.6913 56.9344 6.1863 56.8934 6.6983C56.8854 6.8113 56.8774 6.9293 56.8704 7.0383C56.8244 7.4683 56.7204 7.6023 56.7074 7.6893C56.7014 7.7093 56.6974 7.7353 56.6964 7.7473C56.6974 7.7893 56.7044 7.6113 56.5854 7.3163C56.3424 6.4263 55.5884 5.6203 56.0144 4.1393C56.1164 3.8723 56.2814 3.5773 56.5334 3.3573C56.7634 3.1323 57.0324 3.0103 57.1944 2.9223C57.5694 2.7253 57.9074 2.5993 58.2574 2.4653L58.2714 2.5033Z" fill="white"/>
<path fill-rule="evenodd" clip-rule="evenodd" d="M48.9613 15.7079C48.9853 15.8079 48.9493 15.7289 48.9243 15.7479C48.8943 15.7429 48.8813 15.7299 48.8373 15.7259C48.7433 15.7189 48.6663 15.6969 48.5533 15.6899C48.3393 15.6699 48.0993 15.6549 47.8533 15.6419C47.6683 15.6369 47.4993 15.6989 47.3063 15.6819C46.6343 15.6249 45.9113 15.4889 45.1993 15.4369C44.8813 15.4019 44.5723 15.4259 44.2593 15.4169C43.8583 15.3959 43.4393 15.3709 43.0253 15.1879C42.8993 15.1339 42.9203 15.1879 43.0183 15.1329C43.1193 15.0939 43.2693 14.8219 43.4553 14.6469C44.1063 13.9539 44.7953 13.5069 45.6173 13.4689C46.1093 13.4679 46.5773 13.2119 47.0863 13.1459C47.6513 13.0809 48.2233 13.0759 48.8983 13.1699C49.2793 13.2079 50.0033 13.4309 50.3333 13.8659C50.8653 14.5119 50.8643 15.1399 50.9563 15.6569C51.0133 16.0669 51.0833 16.4419 51.0313 16.8319C51.0243 16.9169 51.0213 16.9989 51.0073 17.0839C50.9633 17.4009 50.8773 17.5349 50.8893 17.6039C50.8883 17.6209 50.8933 17.6409 50.8963 17.6489C50.9213 17.6699 50.8353 17.5759 50.6053 17.3909C50.3303 17.0959 50.0093 16.7769 49.7093 16.4889C49.4573 16.1919 49.1873 15.9269 49.0153 15.7489C48.9443 15.6939 48.8793 15.6309 48.8233 15.6199C48.7943 15.6119 48.7703 15.5939 48.7583 15.6029L48.7403 15.6049C48.7293 15.6129 48.7393 15.6029 48.7733 15.5739C48.7993 15.5489 48.8073 15.5489 48.8253 15.5339C48.8823 15.4929 48.9523 15.4149 48.9873 15.3699C49.0103 15.3489 49.0323 15.3199 49.0513 15.2829C49.0453 15.2919 49.0423 15.3079 49.0423 15.3079V15.3089V15.3099C49.0193 15.3799 49.2453 14.6959 49.1493 14.9859L49.1483 14.9879L49.1473 14.9909L49.1443 14.9979L49.1333 15.0229L49.1143 15.0749L49.0453 15.2819C49.0053 15.4219 48.9773 15.5629 48.9613 15.7049V15.7079Z" fill="white"/>
<path fill-rule="evenodd" clip-rule="evenodd" d="M18.0848 70.0698C21.0208 71.9208 23.9768 73.7548 26.9518 75.5558C28.0368 76.2148 29.1618 76.8048 30.2438 77.4668L41.6878 84.4948C43.3878 85.5228 45.1268 86.5028 46.8478 87.4638C49.0648 88.6858 51.2588 89.9728 53.3498 91.4208C53.9988 91.8758 53.7598 92.0778 53.0148 92.0358C52.2728 91.9878 51.0018 91.7428 49.6798 91.1178C47.3268 90.0318 45.0628 88.7878 42.8038 87.5208C40.5448 86.2558 38.3028 84.9478 36.0868 83.5698C33.4318 81.9318 30.5608 80.4148 27.8038 78.8078C24.7748 77.0378 21.7608 75.2368 18.7558 73.4168C16.9068 72.2948 15.0618 71.1678 13.2268 70.0118C12.5298 69.5818 11.8398 69.1238 11.1488 68.6718C10.8038 68.4518 10.4598 68.2088 10.1158 67.9648C9.91982 67.8208 9.63482 67.6458 9.42882 67.4648L9.26082 67.3288C9.23382 67.2638 9.21882 67.1898 9.19782 67.1208C9.15382 66.9818 9.11882 66.8408 9.09782 66.6978C8.96682 66.0618 8.95582 65.7288 8.90682 65.2948L8.80382 64.0608C8.74282 63.2428 8.68182 62.4268 8.62182 61.6138C8.43282 59.0898 8.12982 56.6248 7.99282 54.1248C7.95782 53.5748 7.90782 53.0358 7.89082 52.4798C7.85182 51.4488 7.93282 50.7648 8.06182 50.2838C8.23482 49.8038 8.43282 49.5248 8.67082 49.3048C8.77982 49.2038 8.87982 49.0718 8.97382 49.0138C9.13282 48.9168 9.27682 49.0778 9.46282 49.4458C9.64182 49.8148 9.90982 50.3908 10.0058 51.1328C10.3438 53.3378 10.6178 55.6068 10.8378 57.9078C11.0348 60.2018 11.1808 62.5578 11.4018 64.8358L11.5088 65.8088C11.5218 65.8358 11.4778 65.7978 11.5408 65.8468C12.1938 66.3168 12.9598 66.7788 13.6698 67.2478L18.1138 70.0128L18.0848 70.0698Z" fill="white"/>
<path fill-rule="evenodd" clip-rule="evenodd" d="M54.1332 78.0956L54.1022 81.5806C54.1052 82.0046 54.1672 82.4256 54.1632 82.8496C54.1432 84.3476 54.1232 85.8526 54.1032 87.3486C54.0962 88.0146 54.1362 88.6826 54.1852 89.3426C54.2392 90.1956 54.3832 91.0336 54.1642 91.9376C54.0982 92.2166 53.7072 92.1396 53.3172 91.9046C52.9322 91.6706 52.5292 91.3056 52.4772 90.8286C52.3222 89.1526 52.1482 87.4316 52.2862 85.6846C52.3672 84.6376 52.1962 83.5636 52.1552 82.4986L52.0642 78.9796L52.0222 76.8116C51.9982 75.7166 52.0352 74.6136 51.9872 73.5246C51.9462 72.6786 51.8022 71.8476 51.7922 70.9926C51.7892 70.8036 51.7702 70.6186 51.7782 70.4276C51.8172 69.7156 51.9932 69.4756 52.4332 69.3866C52.5352 69.3646 52.6372 69.3326 52.7362 69.3266C53.0702 69.3086 53.3292 69.6176 53.4252 70.0856C53.5772 70.7996 53.7522 71.5406 53.8552 72.2976C53.9452 73.0536 54.0042 73.8246 54.0612 74.6026L54.1642 76.3406L54.1852 78.0916L54.1332 78.0956Z" fill="white"/>
<path fill-rule="evenodd" clip-rule="evenodd" d="M116.821 78.2524L101.855 82.0004C100.034 82.4514 98.2322 82.9734 96.4082 83.4024L77.0932 87.8994C74.2412 88.5874 71.3752 89.2784 68.5452 89.9604C64.8982 90.8064 61.2802 91.8164 57.4952 92.1734C56.2852 92.2354 56.4412 91.8764 57.3422 91.3384C58.2392 90.7664 59.9012 89.9734 61.9822 89.4654C69.3492 87.6104 76.7532 85.7974 84.2602 84.1374C88.7532 83.1484 93.3552 81.8254 97.9102 80.6514L112.947 76.8104C116.028 76.0084 119.112 75.2084 122.171 74.3574L124.018 73.8324L124.544 73.6774C124.605 73.6394 124.759 73.6514 124.732 73.5464L124.737 73.2904C124.744 69.8354 124.751 66.3874 124.758 62.9684C124.743 59.2424 124.611 55.5854 124.64 51.8864C124.646 51.0714 124.641 50.2714 124.666 49.4494C124.818 46.3984 125.135 45.4174 125.831 44.8414C125.991 44.7104 126.155 44.5334 126.307 44.4664C126.832 44.2514 127.06 45.4934 127.078 47.6814C127.172 54.2004 127.194 61.1144 127.187 68.0654C127.182 70.0924 127.176 72.1234 127.172 74.1614L127.002 74.6664L126.917 74.9184L126.874 75.0434L126.853 75.1064C127.036 75.2374 126.603 74.9324 126.647 74.9644L126.645 74.9684L126.64 74.9744L126.632 74.9874L126.614 75.0134L126.34 75.4264C126.267 75.5844 126.044 75.6474 125.903 75.7614C125.567 75.9324 125.102 76.0404 124.767 76.1494L124.153 76.3274L121.713 77.0034L116.843 78.3084L116.821 78.2524Z" fill="white"/>
<path fill-rule="evenodd" clip-rule="evenodd" d="M96.9051 49.8046L85.6311 52.2466L81.5361 53.2126L67.0561 56.4296C64.9171 56.9136 62.7761 57.4416 60.6691 57.9836C57.9491 58.6266 55.2391 59.3726 52.4831 59.8306C51.6301 59.9926 51.7041 59.8726 52.3601 59.4856C52.6871 59.2896 53.1631 59.0226 53.7381 58.7266C54.3101 58.4146 54.9991 58.0996 55.7721 57.8686L59.8731 56.5946C61.2451 56.1896 62.6301 55.8316 64.0131 55.4666C66.7801 54.7286 69.5711 54.0676 72.3941 53.4856C75.7671 52.7786 79.2251 51.8236 82.6511 51.0006L93.9731 48.3546C96.2981 47.8206 98.6241 47.2866 100.947 46.7526C104.465 45.9396 108.01 45.1626 111.494 44.3116C114.204 43.6586 116.832 42.8936 119.506 42.2056C120.094 42.0526 120.666 41.8826 121.261 41.7396C122.374 41.5016 123.123 41.4186 123.67 41.4646C124.213 41.4946 124.545 41.6076 124.833 41.8006C124.964 41.8886 125.129 41.9646 125.213 42.0546C125.493 42.3436 124.658 42.8766 123.101 43.5056C118.404 45.0046 113.361 46.1896 108.28 47.3366C104.503 48.1736 100.709 49.0146 96.9221 49.8546L96.9051 49.8046Z" fill="white"/>
<path fill-rule="evenodd" clip-rule="evenodd" d="M26.0878 47.4788C28.1128 48.5038 30.1488 49.5168 32.1998 50.4988L34.4658 51.5258C37.1088 52.7898 39.7528 54.0548 42.3938 55.3178C43.5668 55.8768 44.7618 56.4128 45.9418 56.9368C47.4538 57.6278 49.0078 58.2408 50.3878 59.2768C50.8198 59.5908 50.6168 59.7458 50.1048 59.7558C49.8478 59.7608 49.5158 59.7318 49.1468 59.6648C48.7618 59.5998 48.3168 59.5238 47.8968 59.3198C44.8488 57.9568 41.6888 56.7288 38.6528 55.1688C36.8288 54.2528 34.8468 53.4858 32.9418 52.6278C30.8488 51.6858 28.7638 50.7168 26.6888 49.7258L22.8668 47.8768C20.9408 46.9358 19.0338 45.9308 17.1338 44.9608C15.6648 44.1898 14.1648 43.5428 12.7138 42.7288C12.3928 42.5538 12.0668 42.4008 11.7568 42.2028C10.6228 41.4098 10.3628 41.0138 10.4078 40.4758C10.4188 40.3528 10.4108 40.2208 10.4418 40.1178C10.5408 39.7818 11.1908 39.8258 12.0528 40.2488C14.6298 41.4858 17.2628 42.9558 19.9958 44.3378C22.0198 45.3698 24.0478 46.4308 26.1048 47.4368L26.0878 47.4788Z" fill="white"/>
<path fill-rule="evenodd" clip-rule="evenodd" d="M112.409 32.3866C112.409 33.4176 112.41 34.4506 112.435 35.4856C112.444 35.8626 112.516 36.2336 112.519 36.6116C112.524 37.9456 112.539 39.2816 112.52 40.6206C112.521 41.2146 112.573 41.8066 112.633 42.3916C112.718 43.1416 112.761 43.9026 112.603 44.6686C112.551 44.9076 112.241 44.8926 111.892 44.7156C111.549 44.5366 111.129 44.2016 111.017 43.7816C110.797 43.0356 110.717 42.2816 110.655 41.5196C110.597 40.7576 110.547 39.9926 110.612 39.2106C110.68 38.2766 110.487 37.3276 110.427 36.3826L110.275 33.2536L110.205 31.3236C110.168 30.3486 110.172 29.3656 110.089 28.4006C110.034 27.6486 109.84 26.9176 109.752 26.1686C109.743 26.0036 109.713 25.8436 109.721 25.6756C109.727 25.5206 109.741 25.3916 109.766 25.2836C109.802 25.1756 109.878 25.0886 109.938 25.0166C110.068 24.8726 110.218 24.7906 110.414 24.7236C110.503 24.6946 110.587 24.6546 110.667 24.6376C110.918 24.5786 111.212 24.8276 111.521 25.2616C111.643 25.5856 111.767 25.9106 111.879 26.2406C111.953 26.5716 112.006 26.9036 112.06 27.2406C112.16 27.9136 112.224 28.5986 112.28 29.2876C112.358 30.3116 112.422 31.3446 112.464 32.3806L112.409 32.3866Z" fill="white"/>
<path fill-rule="evenodd" clip-rule="evenodd" d="M79.0673 30.0916C75.0703 30.7856 71.0723 31.4756 67.0913 32.2236L62.7543 33.1166C60.2103 33.6286 57.6463 34.1186 55.1693 34.7646L54.2383 35.0036L53.4493 35.2586L53.2573 35.3176L53.1603 35.3456C53.1523 35.3746 53.1493 35.4086 53.1443 35.4396L53.1253 35.6356L53.1003 35.9906L52.8983 39.8896C52.7933 42.2006 52.7293 44.5276 52.6903 46.8226C52.6423 49.7716 52.6643 52.7376 52.4213 55.6746C52.2923 57.5086 50.7293 55.1666 50.7033 51.7526C50.7013 48.7346 50.7313 45.7206 50.8113 42.7006C50.8453 41.1906 50.9193 39.6796 51.0033 38.1656L51.1453 35.8866L51.1673 35.5606C51.1563 35.3796 51.2433 35.2486 51.2803 35.0936C51.3843 34.8076 51.4513 34.4636 51.5973 34.2586L51.6213 34.2146L51.6273 34.2036L51.6303 34.1976C51.6573 34.2156 51.4083 34.0256 51.5163 34.1036L51.5373 34.0866L51.6233 34.0176L51.7943 33.8816C51.9053 33.7886 52.0123 33.6926 52.1903 33.6536L53.0253 33.3736C54.8653 32.8276 56.6623 32.4156 58.4923 31.9646C60.3173 31.5386 62.1493 31.0986 63.9743 30.7306C67.9873 29.9016 72.0103 29.1536 76.0313 28.4036C78.5053 27.9466 80.9823 27.4906 83.4553 27.0346C87.1983 26.3356 90.9673 25.6686 94.6623 24.8786C97.5353 24.2656 100.32 23.5306 103.126 22.8186C103.74 22.6536 104.342 22.4906 104.961 22.3236C107.273 21.7606 107.996 21.6496 108.651 22.0446C108.798 22.1316 108.982 22.2066 109.083 22.3056C109.427 22.6376 108.581 23.2376 106.895 23.8386C101.908 25.5146 96.5463 26.7206 91.1493 27.8156C87.1403 28.6316 83.1083 29.3926 79.0833 30.1456L79.0673 30.0916Z" fill="white"/>
<path fill-rule="evenodd" clip-rule="evenodd" d="M60.452 15.0243L70.729 13.3343C71.981 13.1293 73.222 12.8653 74.476 12.6793C76.69 12.3513 78.909 12.0443 81.149 11.8023C82.275 11.6953 83.394 11.5903 84.553 11.5653L85.434 11.5663L85.989 11.6043C86.21 11.6203 86.406 11.6713 86.615 11.7133C87.141 11.6653 87.159 12.2173 87.324 12.5883C87.387 12.7773 87.487 13.0043 87.519 13.1603L87.619 13.5893C88.073 15.6213 88.162 17.6613 88.154 19.6413C88.153 22.1883 88.033 24.7003 88.019 27.1823C88.017 27.9543 87.724 27.8903 87.364 27.2463C87.001 26.6043 86.589 25.3553 86.53 23.8843C86.443 21.2833 86.423 18.7253 86.193 16.2923C86.129 15.6843 86.037 15.0893 85.92 14.5063C85.862 14.2173 85.779 13.9313 85.715 13.6533C85.703 13.5843 85.713 13.5693 85.7 13.5213C85.684 13.5133 85.668 13.5013 85.649 13.4963C85.637 13.4943 85.631 13.4913 85.626 13.4863L85.618 13.4803L85.521 13.4723C85.236 13.4673 84.937 13.4643 84.634 13.4723C84.019 13.4913 83.389 13.5333 82.756 13.5783C79.709 13.8123 76.54 14.4683 73.424 15.0133L63.12 16.8573L56.775 18.0133C53.572 18.6003 50.345 19.1503 47.168 19.7633C44.696 20.2323 42.298 20.8433 39.84 21.2933C39.3 21.3963 38.773 21.5123 38.223 21.5933C37.205 21.7513 36.521 21.7953 36.034 21.7413C35.542 21.6623 35.248 21.5043 34.999 21.2503C34.886 21.1343 34.742 21.0243 34.672 20.9093C34.441 20.5383 35.217 20.0343 36.661 19.6803C40.946 18.6193 45.516 17.7303 50.124 16.8613C53.547 16.2203 56.989 15.5743 60.436 14.9683L60.452 15.0243Z" fill="white"/>
<path fill-rule="evenodd" clip-rule="evenodd" d="M33.537 34.5833L33.435 37.9113C33.427 38.3173 33.471 38.7203 33.457 39.1253C33.399 40.5563 33.34 41.9943 33.282 43.4223C33.26 44.0573 33.272 44.6983 33.294 45.3313C33.309 46.1483 33.414 46.9643 33.157 47.8123C33.08 48.0753 32.718 47.9773 32.371 47.7293C32.028 47.4793 31.691 47.1123 31.678 46.6593C31.65 45.0673 31.611 43.4193 31.768 41.7603C31.873 40.7653 31.758 39.7343 31.754 38.7173L31.772 35.3573L31.792 33.2873C31.798 32.2413 31.846 31.1903 31.824 30.1503C31.817 29.3413 31.68 28.5473 31.688 27.7363C31.686 27.5583 31.669 27.3833 31.677 27.2033C31.725 26.5303 31.862 26.3233 32.277 26.2223C32.371 26.1983 32.466 26.1653 32.558 26.1563C32.871 26.1253 33.113 26.4143 33.199 26.8833C33.316 27.5823 33.463 28.2983 33.503 29.0273C33.545 29.7533 33.573 30.4983 33.582 31.2413C33.615 32.3483 33.591 33.4643 33.581 34.5813L33.537 34.5833Z" fill="white"/>
<path fill-rule="evenodd" clip-rule="evenodd" d="M25.3929 26.4907L25.2689 30.9647C25.2589 31.5087 25.3059 32.0517 25.2899 32.5957C25.2199 34.5157 25.1499 36.4407 25.0799 38.3587C25.0539 39.2107 25.0689 40.0697 25.0969 40.9167C25.1189 42.0127 25.2449 43.0907 24.9599 44.2367C24.8719 44.5937 24.4649 44.4707 24.0759 44.1497C23.6949 43.8357 23.3039 43.3407 23.2879 42.7237C23.2429 40.5567 23.1989 38.3387 23.3809 36.1087C23.5009 34.7717 23.3759 33.3857 23.3749 32.0187L23.4049 27.5087L23.4299 24.7307C23.4349 23.3287 23.4859 21.9197 23.4569 20.5257C23.4369 19.4417 23.2879 18.3787 23.2809 17.2957C23.2779 17.0567 23.2589 16.8227 23.2669 16.5817C23.3049 15.6847 23.4769 15.3907 23.9399 15.2467C24.0469 15.2137 24.1539 15.1667 24.2579 15.1527C24.6089 15.1057 24.8799 15.4867 24.9729 16.1087C25.1109 17.0457 25.2869 18.0127 25.3349 18.9977C25.3929 19.9807 25.4209 20.9827 25.4409 21.9887C25.4789 23.4807 25.4549 24.9847 25.4429 26.4877L25.3929 26.4907Z" fill="white"/>
<path fill-rule="evenodd" clip-rule="evenodd" d="M52.665 8.69907L45.872 9.83307L43.407 10.3201C40.496 10.8231 37.582 11.3271 34.673 11.8301C33.383 12.0621 32.095 12.3441 30.826 12.6281C29.195 12.9951 27.571 13.4251 25.902 13.6081C24.864 13.7291 25.879 12.1501 27.748 11.6851C31.067 10.8921 34.4 10.1701 37.806 9.64007C39.845 9.33607 41.924 8.81107 43.991 8.40507L50.823 7.12607L55.035 6.37207C57.159 5.98507 59.303 5.64407 61.406 5.22807C63.043 4.91207 64.627 4.48407 66.239 4.12007C66.594 4.03907 66.937 3.94107 67.298 3.87307C68.633 3.62107 69.082 3.69007 69.455 4.19407C69.54 4.30807 69.645 4.41907 69.703 4.53907C69.897 4.94407 69.407 5.38207 68.45 5.65807C65.613 6.48807 62.573 7.02407 59.516 7.56907C57.242 7.96007 54.957 8.35307 52.677 8.74507L52.665 8.69907Z" fill="white"/>
<path fill-rule="evenodd" clip-rule="evenodd" d="M58.2504 1.36806C59.1164 1.23406 59.9834 1.09906 60.8464 0.966061C61.1604 0.918061 61.4644 0.829061 61.7794 0.789061C62.8864 0.661061 64.0024 0.533061 65.1074 0.405061C65.5984 0.347061 66.0844 0.248061 66.5714 0.177061C67.1964 0.0770612 67.8124 -0.0629388 68.4924 0.0310612C68.7154 0.0670612 68.6664 0.310061 68.5204 0.567061C68.3734 0.823061 68.1264 1.12206 67.7854 1.21006C66.5774 1.53506 65.3294 1.75806 64.0424 1.84006C63.2714 1.89306 62.5064 2.13206 61.7394 2.28806C60.8974 2.46006 60.0534 2.63306 59.2104 2.80506C58.6944 2.91806 58.1804 3.03506 57.6804 3.17706L56.9744 3.38606C56.8924 3.41406 56.8064 3.44206 56.7334 3.49306C56.6494 3.54506 56.6934 3.65206 56.6764 3.73406L56.6724 3.89506L56.6754 4.17106C56.6874 4.79706 56.8104 5.41206 56.9134 6.00906C56.9374 6.13906 56.9814 6.26706 56.9814 6.39306C56.9824 6.63106 56.9734 6.76706 56.8624 6.87506C56.7154 6.97506 56.5484 7.05506 56.3444 7.13706C56.2504 7.17706 56.1674 7.23006 56.0864 7.26806C55.9484 7.33206 55.8114 7.33506 55.6234 7.23606C55.4454 7.14506 55.1944 6.98506 55.1484 6.77306C54.9084 6.21506 54.8784 5.67906 54.8554 5.14206C54.8484 4.87406 54.8534 4.60706 54.8634 4.34306L54.8844 3.94906L54.8994 3.65506C54.9054 3.52206 54.9144 3.39006 54.9314 3.26206C54.9404 3.07006 54.9954 2.90806 55.0534 2.74806C55.2634 2.64606 55.1904 2.37306 55.3964 2.28106C55.5364 2.14506 55.7314 2.04706 55.9174 1.95306C56.1204 1.87906 56.3194 1.79106 56.5274 1.73406L56.9104 1.62706C57.3634 1.51106 57.8024 1.41906 58.2394 1.32906L58.2504 1.36806Z" fill="white"/>
<path fill-rule="evenodd" clip-rule="evenodd" d="M50.035 14.2831C49.183 14.3481 48.308 14.4541 47.439 14.5801C47.121 14.6271 46.813 14.7191 46.495 14.7641C45.372 14.9241 44.243 15.0821 43.124 15.2791C42.627 15.3661 42.138 15.4991 41.649 15.6091C41.023 15.7611 40.407 15.9511 39.735 15.9541C39.52 15.9531 39.51 15.7091 39.622 15.4291C39.735 15.1521 39.97 14.8161 40.318 14.6931C41.548 14.2381 42.827 13.9321 44.155 13.7861C44.949 13.6961 45.734 13.4311 46.53 13.2631C47.406 13.0811 48.287 12.9191 49.181 12.7781L50.012 12.6591C50.23 12.6351 50.752 12.5531 51.112 12.5641C51.374 12.5641 51.614 12.6001 51.795 12.7381C52.015 12.8541 52.019 13.1181 52.103 13.3531C52.233 14.1031 52.3 14.4521 52.405 14.9261C52.548 15.5541 52.797 16.1521 52.997 16.7781C53.041 16.9161 53.105 17.0501 53.12 17.1961C53.153 17.4671 53.151 17.6581 53.043 17.8031C52.893 17.9551 52.725 18.0421 52.503 18.1081C52.403 18.1361 52.309 18.1651 52.223 18.1721C52.075 18.1841 51.941 18.1271 51.778 18.0681C51.618 18.0011 51.379 17.8951 51.326 17.7281C50.799 16.7311 50.681 15.5461 50.511 14.3741C50.49 14.2851 50.517 14.3441 50.501 14.3301C50.519 14.3191 50.519 14.3081 50.515 14.2971C50.513 14.2911 50.507 14.2871 50.5 14.2811L50.043 14.3231L50.035 14.2831Z" fill="white"/>
<path fill-rule="evenodd" clip-rule="evenodd" d="M97.41 73.5624C95.457 73.9994 93.501 74.3884 91.545 74.7664C90.831 74.9034 90.131 75.1014 89.414 75.2234C88.151 75.4394 86.883 75.6354 85.609 75.8104C84.972 75.8964 84.334 75.9834 83.689 76.0504L82.714 76.1324L82.216 76.1624C82.074 76.1594 81.755 76.1914 81.541 76.1754C81.329 76.1714 81.128 76.1444 80.938 76.0834C80.891 76.0694 80.839 76.0544 80.796 76.0324L80.699 75.9164L80.505 75.6844C80.268 75.3694 80.07 74.9344 79.966 74.5724C79.775 73.9414 79.712 73.3184 79.689 72.7224C79.667 71.9574 79.681 71.2154 79.751 70.4994C79.827 69.7844 79.94 69.0944 80.003 68.4194C80.043 68.0054 80.351 67.9944 80.729 68.3584C81.102 68.7174 81.527 69.4974 81.574 70.3484C81.632 71.1004 81.56 71.8124 81.606 72.4694C81.625 72.7944 81.646 73.1144 81.7 73.3964C81.719 73.5454 81.756 73.6754 81.788 73.8064C81.801 73.8744 81.823 73.9334 81.846 73.9904C81.874 74.0534 81.839 74.0174 81.85 74.0334C81.848 74.0474 81.837 74.0924 81.859 74.1124C81.869 74.1224 81.882 74.1314 81.899 74.1404C81.878 74.1494 81.974 74.1414 82.062 74.1344L82.317 74.1114C83.009 74.0424 83.733 73.9594 84.464 73.9104C86.214 73.7684 87.992 73.2914 89.756 72.9364C91.698 72.5424 93.641 72.1394 95.572 71.6914C96.761 71.4154 97.948 71.1334 99.119 70.8074C100.882 70.3044 102.697 69.8134 104.278 69.0474C104.428 68.9724 104.575 68.8934 104.709 68.8094C104.823 68.7404 104.88 68.6934 104.957 68.6274C105.026 68.5634 105.093 68.4984 105.13 68.4144C105.17 68.3284 105.137 68.2264 105.132 68.1384L105.113 68.0074L105.094 67.7614L105.045 67.2504L104.917 66.2424C104.873 65.9504 104.804 65.6684 104.756 65.3874C104.605 64.3334 104.748 64.1104 105.222 63.6564C105.324 63.5464 105.428 63.4354 105.527 63.3284C105.845 62.9484 106.585 63.3624 106.979 64.3134C107.277 65.0014 107.368 65.6984 107.47 66.3874C107.514 66.7334 107.543 67.0794 107.564 67.4284L107.585 67.9514L107.588 68.0944C107.579 68.1724 107.582 68.2524 107.579 68.3324C107.57 68.4894 107.583 68.6554 107.556 68.8074C107.508 69.4274 107.167 70.0004 106.648 70.3824C106.408 70.5754 106.093 70.7774 105.856 70.9034C105.675 71.0054 105.503 71.0904 105.329 71.1754C104.644 71.4994 103.983 71.7474 103.32 71.9774C101.357 72.6524 99.386 73.1164 97.428 73.6164L97.41 73.5624Z" fill="white"/>
<path fill-rule="evenodd" clip-rule="evenodd" d="M9.44081 62.4241C9.44081 62.4241 4.33681 60.9241 1.22281 63.3601C-1.54119 65.5231 9.69981 76.7581 32.7188 80.7031L9.92981 66.8731L9.44081 62.4241Z" fill="white"/>
<path fill-rule="evenodd" clip-rule="evenodd" d="M94.1542 48.7777L84.0842 51.0657L80.4272 51.9667L67.4982 54.9937C65.5872 55.4447 63.6762 55.9437 61.7942 56.4457C59.3662 57.0517 56.9472 57.7407 54.4832 58.1857C53.7212 58.3397 53.7902 58.2337 54.3762 57.8907C54.6702 57.7147 55.0932 57.4797 55.6072 57.2137C56.1182 56.9327 56.7332 56.6527 57.4232 56.4387C59.8572 55.6297 62.3022 54.8737 64.7802 54.2207C67.2512 53.5377 69.7422 52.9137 72.2632 52.3657C75.2762 51.6957 78.3632 50.8137 81.4252 50.0487L91.5372 47.5807L97.7672 46.0907C100.91 45.3317 104.078 44.6097 107.191 43.8247C109.611 43.2147 111.963 42.5267 114.347 41.8837C114.872 41.7407 115.383 41.5867 115.916 41.4577C116.907 41.2317 117.574 41.1447 118.062 41.1737C118.548 41.1877 118.844 41.2777 119.103 41.4377C119.221 41.5107 119.369 41.5727 119.445 41.6477C119.697 41.8897 118.955 42.3647 117.564 42.9377C113.363 44.3087 108.856 45.4077 104.317 46.4737C100.942 47.2547 97.5522 48.0377 94.1692 48.8197L94.1542 48.7777Z" fill="white"/>
<path fill-rule="evenodd" clip-rule="evenodd" d="M71.7128 19.7235C72.2528 19.6565 72.7948 19.5895 73.3318 19.5235C73.5278 19.4965 73.7188 19.4415 73.9158 19.4185C74.6088 19.3405 75.3138 19.2615 76.0008 19.1835C76.3088 19.1505 76.6138 19.0895 76.9138 19.0255C77.2988 18.9415 77.6788 18.8245 78.0838 18.8445C78.3358 18.8515 78.1728 19.6405 77.7368 19.7755C76.9588 19.9835 76.1778 20.1785 75.3548 20.1945C74.8638 20.2125 74.3788 20.3585 73.8888 20.4405C73.3528 20.5245 72.8108 20.6105 72.2718 20.6955C71.9388 20.7485 71.6038 20.8025 71.2738 20.8545C70.7138 20.9465 70.2448 20.9315 69.7378 21.0295C69.3528 21.0945 68.9838 21.2235 68.6078 21.3275C68.5248 21.3505 68.4448 21.3835 68.3608 21.4005C68.0488 21.4655 67.9378 21.4085 67.8268 21.1295C67.8018 21.0665 67.7718 21.0045 67.7528 20.9395C67.6888 20.7225 67.7898 20.5185 68.0128 20.4195C68.6718 20.1225 69.3928 19.9885 70.1338 19.8915C70.3988 19.8515 70.7288 19.8395 70.9138 19.8185L71.7068 19.6975L71.7128 19.7235Z" fill="white"/>
<path fill-rule="evenodd" clip-rule="evenodd" d="M68.3075 25.6385C69.2735 25.4895 70.2405 25.3405 71.2035 25.1925C71.5565 25.1245 71.9005 25.0585 72.2535 24.9915C73.4925 24.7895 74.7395 24.5865 75.9745 24.3855C76.5255 24.2945 77.0725 24.1735 77.6115 24.0495C78.3035 23.8885 78.9915 23.6935 79.7055 23.6335C80.1495 23.5905 79.7645 24.4385 78.9745 24.6645C77.5675 25.0335 76.1555 25.3835 74.6915 25.5455C73.8175 25.6525 72.9345 25.8855 72.0525 26.0495L69.1375 26.5595L67.3425 26.8645C66.4375 27.0225 65.5235 27.1605 64.6295 27.3385C63.9345 27.4785 63.2645 27.6755 62.5825 27.8465C62.4335 27.8845 62.2825 27.9235 62.1345 27.9615C61.5695 28.0795 61.3755 28.0395 61.2035 27.7745C61.1645 27.7135 61.1175 27.6555 61.0895 27.5925C60.9965 27.3805 61.1965 27.1565 61.5995 27.0175C62.7975 26.6105 64.0875 26.3465 65.3885 26.1045C66.3565 25.9415 67.3295 25.7765 68.3015 25.6125L68.3075 25.6385Z" fill="white"/>
</svg>
