<svg width="40" height="40" viewBox="0 0 40 40" fill="none" xmlns="http://www.w3.org/2000/svg">
<path d="M7.5 9.58333C7.5 8.43274 8.43274 7.5 9.58333 7.5H13.3333C14.0237 7.5 14.5833 6.94036 14.5833 6.25C14.5833 5.55964 14.0237 5 13.3333 5H9.58333C7.05203 5 5 7.05203 5 9.58333V13.3333C5 14.0237 5.55964 14.5833 6.25 14.5833C6.94036 14.5833 7.5 14.0237 7.5 13.3333V9.58333Z" fill="#D9D9D9"/>
<path d="M26.6667 5C25.9763 5 25.4167 5.55964 25.4167 6.25C25.4167 6.94036 25.9763 7.5 26.6667 7.5H30.4167C31.5673 7.5 32.5 8.43274 32.5 9.58333V13.3333C32.5 14.0237 33.0596 14.5833 33.75 14.5833C34.4404 14.5833 35 14.0237 35 13.3333V9.58333C35 7.05203 32.948 5 30.4167 5H26.6667Z" fill="#D9D9D9"/>
<path d="M7.5 26.6667C7.5 25.9763 6.94036 25.4167 6.25 25.4167C5.55964 25.4167 5 25.9763 5 26.6667V30.4167C5 32.948 7.05203 35 9.58333 35H13.3333C14.0237 35 14.5833 34.4404 14.5833 33.75C14.5833 33.0596 14.0237 32.5 13.3333 32.5H9.58333C8.43274 32.5 7.5 31.5673 7.5 30.4167V26.6667Z" fill="#D9D9D9"/>
<path d="M35 26.6667C35 25.9763 34.4404 25.4167 33.75 25.4167C33.0596 25.4167 32.5 25.9763 32.5 26.6667V30.4167C32.5 31.5673 31.5673 32.5 30.4167 32.5H26.6667C25.9763 32.5 25.4167 33.0596 25.4167 33.75C25.4167 34.4404 25.9763 35 26.6667 35H30.4167C32.948 35 35 32.948 35 30.4167V26.6667Z" fill="#D9D9D9"/>
<path d="M17.0537 15.286C16.5656 14.7978 15.7741 14.7978 15.286 15.286C14.7978 15.7741 14.7978 16.5656 15.286 17.0537L18.2322 20L15.286 22.9463C14.7978 23.4344 14.7978 24.2259 15.286 24.714C15.7741 25.2022 16.5656 25.2022 17.0537 24.714L20 21.7678L22.9463 24.714C23.4344 25.2022 24.2259 25.2022 24.714 24.714C25.2022 24.2259 25.2022 23.4344 24.714 22.9463L21.7678 20L24.714 17.0537C25.2022 16.5656 25.2022 15.7741 24.714 15.286C24.2259 14.7978 23.4344 14.7978 22.9463 15.286L20 18.2322L17.0537 15.286Z" fill="#D9D9D9"/>
<rect x="5" y="5" width="30" height="30" rx="4" fill="url(#paint0_linear_201_23)"/>
<defs>
<linearGradient id="paint0_linear_201_23" x1="20" y1="5" x2="20" y2="114" gradientUnits="userSpaceOnUse">
<stop stop-color="white" stop-opacity="0"/>
<stop offset="1" stop-color="white"/>
</linearGradient>
</defs>
</svg>
