<svg width="177" height="18" viewBox="0 0 177 18" fill="none" xmlns="http://www.w3.org/2000/svg">
<mask id="mask0_301_3094" style="mask-type:luminance" maskUnits="userSpaceOnUse" x="0" y="9" width="18" height="9">
<path d="M0 9.44446H17.9117V18H0V9.44446Z" fill="white"/>
</mask>
<g mask="url(#mask0_301_3094)">
<path d="M17.9007 9.45135C17.9007 14.306 14.0207 17.9978 8.94846 17.9978C3.88661 17.9978 0.0166016 14.3066 0.0166016 9.45135H4.39204C4.40788 11.9453 6.38249 13.8611 8.95844 13.8611C11.5344 13.8611 13.5094 11.9451 13.5248 9.45135H17.9007Z" fill="white"/>
</g>
<mask id="mask1_301_3094" style="mask-type:luminance" maskUnits="userSpaceOnUse" x="0" y="0" width="18" height="9">
<path d="M0 0H17.9117V8.61111H0V0Z" fill="white"/>
</mask>
<g mask="url(#mask1_301_3094)">
<path d="M13.5253 8.60634C13.5259 8.59635 13.5259 8.58594 13.5259 8.57617C13.5259 6.05751 11.5452 4.11632 8.95888 4.11632C6.3725 4.11632 4.39138 6.05816 4.39138 8.57661C4.39138 8.58659 4.39138 8.597 4.39204 8.60699H0.0166016C0.0166016 3.71159 3.89659 0 8.95844 0C14.0203 0 17.9001 3.71159 17.9001 8.60634H13.5253Z" fill="white"/>
</g>
<path d="M33.3921 16.2344C29.5151 16.2344 26.7026 13.1777 26.7026 8.73438C26.7026 4.26172 29.5151 1.21484 33.3921 1.21484C37.269 1.21484 40.0913 4.26172 40.0913 8.73438C40.0913 13.1875 37.269 16.2344 33.3921 16.2344ZM33.3921 14.252C35.9019 14.252 37.9136 12.2793 37.9136 8.73438C37.9136 5.16992 35.9019 3.19727 33.3921 3.19727C30.8823 3.19727 28.8804 5.16992 28.8804 8.73438C28.8804 12.2793 30.8823 14.252 33.3921 14.252ZM47.2593 16.2344C43.7729 16.2344 41.6245 14.3594 41.6245 11.2832H43.7925C43.8022 13.207 45.0815 14.3398 47.2593 14.3398C49.2319 14.3398 50.5308 13.4316 50.5308 12.0156C50.5308 10.8926 49.7593 10.248 47.7378 9.76953L46.146 9.38867C43.2065 8.69531 41.9175 7.47461 41.9175 5.46289C41.9175 2.9043 43.978 1.21484 47.103 1.21484C50.2378 1.21484 52.2202 2.96289 52.3081 5.80469H50.2085C50.1011 4.13477 48.9097 3.10938 47.0737 3.10938C45.3159 3.10938 44.0757 4.03711 44.0757 5.35547C44.0757 6.41016 44.8569 7.01562 46.8589 7.49414L48.4312 7.86523C51.3511 8.55859 52.6987 9.81836 52.6987 11.8984C52.6987 14.5156 50.5601 16.2344 47.2593 16.2344ZM56.9272 1.44922V16H54.7593V1.44922H56.9272ZM59.5835 16V1.44922H61.9858L67.5425 10.248C67.8843 10.7949 68.5288 11.8984 69.1147 12.9336C69.0757 11.8789 69.0562 10.6387 69.0562 10.1113V1.44922H71.2339V16H68.812L63.8413 8.13867C63.4312 7.49414 62.6401 6.17578 61.6733 4.51562C61.7417 6.22461 61.7515 7.48438 61.7515 8.12891V16H59.5835ZM73.021 3.35352V1.44922H84.4565V3.35352H79.8374V16H77.6597V3.35352H73.021ZM93.1968 1.44922V16H91.0288V1.44922H93.1968ZM97.7476 10.0625V16H95.687V5.6875H97.7085V7.24023C98.4116 6.06836 99.4663 5.48242 100.824 5.48242C102.943 5.48242 104.554 6.87891 104.554 9.57422V16H102.494V9.82812C102.494 8.17773 101.664 7.32812 100.238 7.32812C98.8315 7.32812 97.7476 8.14844 97.7476 10.0625ZM110.843 16.2051C108.158 16.2051 106.371 14.0371 106.371 10.8438C106.371 7.66016 108.167 5.48242 110.833 5.48242C112.171 5.48242 113.333 6.03906 113.998 7.18164H114.017V1.44922H116.078V16H114.056V14.4277H114.037C113.343 15.6289 112.191 16.2051 110.843 16.2051ZM111.263 14.4277C113.021 14.4277 114.154 13.0117 114.154 10.8438C114.154 8.67578 113.021 7.25 111.263 7.25C109.603 7.25 108.46 8.50977 108.46 10.8438C108.46 13.168 109.603 14.4277 111.263 14.4277ZM122.132 16.2051C120.013 16.2051 118.402 14.8086 118.402 12.1133V5.6875H120.462V11.8594C120.462 13.5098 121.292 14.3594 122.728 14.3594C124.125 14.3594 125.208 13.5391 125.208 11.625V5.6875H127.269V16H125.248V14.4473C124.544 15.6191 123.5 16.2051 122.132 16.2051ZM133.412 16.2441C131.048 16.2441 129.251 15.1016 129.105 12.8652H131.136C131.253 13.9785 132.035 14.6035 133.373 14.6035C134.681 14.6035 135.492 14.0078 135.492 13.1875C135.492 12.4844 134.896 12.0742 134.007 11.8789L132.298 11.498C130.355 11.0684 129.339 10.082 129.339 8.54883C129.339 6.72266 130.921 5.46289 133.285 5.46289C135.609 5.46289 137.269 6.75195 137.328 8.83203H135.355C135.335 7.82617 134.535 7.09375 133.314 7.09375C132.142 7.09375 131.4 7.71875 131.4 8.50977C131.4 9.20312 131.957 9.62305 132.884 9.83789L134.642 10.2285C136.654 10.6777 137.572 11.5762 137.572 13.0703C137.572 15.0332 135.814 16.2441 133.412 16.2441ZM144.564 5.6875V7.38672H142.474V13.2754C142.474 14.0371 142.738 14.3008 143.558 14.3008H144.564V16H143.265C141.332 16 140.404 15.1992 140.404 13.5391V7.38672H138.587V5.6875H140.404V2.875H142.474V5.6875H144.564ZM146.195 16V5.6875H148.167V7.35742H148.207C148.587 6.23438 149.388 5.56055 150.697 5.56055C151.009 5.56055 151.283 5.58984 151.449 5.60938V7.5332C151.292 7.50391 150.843 7.43555 150.365 7.43555C149.203 7.43555 148.255 8.22656 148.255 9.90625V16H146.195ZM153.031 16V5.6875H155.091V16H153.031ZM154.056 3.91016C153.324 3.91016 152.757 3.35352 152.757 2.65039C152.757 1.9375 153.324 1.38086 154.056 1.38086C154.789 1.38086 155.365 1.9375 155.365 2.65039C155.365 3.35352 154.789 3.91016 154.056 3.91016ZM161.83 16.2344C158.773 16.2344 156.917 13.9785 156.917 10.8633C156.917 7.71875 158.91 5.45312 161.722 5.45312C164.642 5.45312 166.537 7.66016 166.537 10.8438V11.4004H158.949C159.017 13.2559 160.052 14.5156 161.859 14.5156C163.207 14.5156 164.105 13.8418 164.398 12.8652H166.38C166 14.8574 164.164 16.2344 161.83 16.2344ZM158.968 9.83789H164.525C164.359 8.19727 163.304 7.17188 161.742 7.17188C160.189 7.17188 159.144 8.19727 158.968 9.83789ZM172.142 16.2441C169.779 16.2441 167.982 15.1016 167.835 12.8652H169.867C169.984 13.9785 170.765 14.6035 172.103 14.6035C173.412 14.6035 174.222 14.0078 174.222 13.1875C174.222 12.4844 173.626 12.0742 172.738 11.8789L171.029 11.498C169.085 11.0684 168.07 10.082 168.07 8.54883C168.07 6.72266 169.652 5.46289 172.015 5.46289C174.339 5.46289 176 6.75195 176.058 8.83203H174.085C174.066 7.82617 173.265 7.09375 172.044 7.09375C170.873 7.09375 170.13 7.71875 170.13 8.50977C170.13 9.20312 170.687 9.62305 171.615 9.83789L173.373 10.2285C175.384 10.6777 176.302 11.5762 176.302 13.0703C176.302 15.0332 174.544 16.2441 172.142 16.2441Z" fill="white"/>
</svg>
