<svg width="102" height="112" viewBox="0 0 102 112" fill="none" xmlns="http://www.w3.org/2000/svg">
<path fill-rule="evenodd" clip-rule="evenodd" d="M30.1023 19.8761C30.8733 18.3341 31.3243 17.9731 31.8183 17.9441C33.4393 17.8701 35.0983 17.7721 36.7513 17.7501C38.1743 17.7311 39.6023 17.8951 41.0333 17.9041C43.4953 17.9131 45.9613 17.8411 48.4283 17.7811C49.1573 17.7641 49.8863 17.7811 50.6153 17.7311C51.3123 17.6661 52.0093 17.5991 52.7073 17.5721C52.8253 17.5671 52.9473 17.4931 53.0593 17.5861C53.3593 17.8381 53.4403 18.7861 53.2273 19.5011C53.1793 19.6641 53.1263 19.9321 53.0723 19.9371C52.5303 19.9821 52.1093 21.2641 51.5343 21.2631C50.4733 21.1881 49.4143 21.5181 48.3513 21.6291C47.9263 21.6751 47.4993 21.6601 47.0753 21.6051C46.5313 21.5341 45.9893 21.3651 45.4463 21.2941C44.7033 21.1991 41.2113 21.1431 37.8523 21.0221C36.1723 20.9611 34.5253 20.8811 33.2653 20.7871C32.0113 20.7071 31.1253 20.5731 31.0403 20.5291C30.7753 20.4421 30.5053 20.1701 30.1023 19.8761Z" fill="white"/>
<path fill-rule="evenodd" clip-rule="evenodd" d="M33.5681 29.668C34.2001 28.104 34.5801 27.754 34.9201 27.723C36.0411 27.668 37.1641 27.585 38.3021 27.565C39.2811 27.543 40.2691 27.708 41.2651 27.71C42.9791 27.71 44.7041 27.629 46.4311 27.568C46.9421 27.549 47.4531 27.565 47.9631 27.518C48.4511 27.453 48.9401 27.386 49.4291 27.362C49.5111 27.357 49.5971 27.284 49.6751 27.377C49.8871 27.63 49.9471 28.578 49.8001 29.293C49.7671 29.455 49.7311 29.723 49.6931 29.728C49.3131 29.772 49.0231 31.052 48.6211 31.05C47.8781 30.974 47.1361 31.302 46.3931 31.416C46.0951 31.461 45.7971 31.447 45.4981 31.393C45.1171 31.323 44.7361 31.153 44.3551 31.085C43.8331 30.991 41.3861 30.952 39.0071 30.835C37.8181 30.777 36.6391 30.687 35.7361 30.574C34.8331 30.472 34.2151 30.334 34.1621 30.293C33.9771 30.202 33.8241 29.942 33.5681 29.668Z" fill="white"/>
<path fill-rule="evenodd" clip-rule="evenodd" d="M0.909974 15.0675C1.09297 14.4785 1.71897 14.1485 2.30797 14.3315C5.22897 15.2345 -0.0410265 18.1355 0.909974 15.0675Z" fill="white" stroke="#231F20" stroke-width="0.95"/>
<path fill-rule="evenodd" clip-rule="evenodd" d="M71.7508 23.9341C71.9338 23.3451 72.5598 23.0151 73.1488 23.1971C76.0698 24.1011 70.7998 27.0021 71.7508 23.9341Z" fill="white" stroke="#231F20" stroke-width="0.95"/>
<path fill-rule="evenodd" clip-rule="evenodd" d="M83.7205 30.4009C83.9035 29.8119 84.5295 29.4819 85.1185 29.6639C88.0395 30.5679 82.7695 33.4689 83.7205 30.4009Z" fill="white"/>
<path fill-rule="evenodd" clip-rule="evenodd" d="M32.5095 61.5205C32.7955 60.9745 33.4705 60.7625 34.0175 61.0485C36.7275 62.4655 31.0205 64.3665 32.5095 61.5205Z" fill="white" stroke="#231F20" stroke-width="0.95"/>
<path fill-rule="evenodd" clip-rule="evenodd" d="M8.54466 47.4279C8.83066 46.8809 9.50566 46.6699 10.0527 46.9559C12.7627 48.3729 7.05566 50.2739 8.54466 47.4279Z" fill="white"/>
<path fill-rule="evenodd" clip-rule="evenodd" d="M62.74 67.0221L59.399 61.8551C58.991 61.2291 58.533 60.6381 58.14 60.0031C56.754 57.7641 55.404 55.5021 53.995 53.2851C53.371 52.3011 52.683 51.3541 51.99 50.4311C51.156 49.2061 50.205 48.0651 49.615 46.6831C49.419 46.2601 49.696 46.0991 50.256 46.1581C50.538 46.1861 50.895 46.2681 51.274 46.4091C51.669 46.5411 52.044 46.7611 52.329 47.0911C52.845 47.6681 53.348 48.2491 53.839 48.8381C54.313 49.4381 54.722 50.0841 55.149 50.7161C55.989 51.9901 56.784 53.2951 57.53 54.6411C58.421 56.2511 59.604 57.7481 60.643 59.3031L64.023 64.4671C64.72 65.5221 65.418 66.5791 66.137 67.6171C67.227 69.1891 68.309 70.7801 69.498 72.2521C70.424 73.3941 71.465 74.4091 72.494 75.3791C72.723 75.5871 72.937 75.7931 73.144 76.0191C73.337 76.2071 73.485 76.3911 73.591 76.5431C73.696 76.6851 73.782 76.8011 73.823 76.9471C73.864 77.1911 73.892 77.4641 73.897 77.6701C73.908 77.7821 73.968 77.8991 74.004 77.9971C74.275 78.2961 73.146 78.6421 72.234 78.1241C70.878 77.4241 69.909 76.4201 68.959 75.3901C68.013 74.3561 67.144 73.2561 66.298 72.1401C65.043 70.4811 63.87 68.7641 62.691 67.0611L62.74 67.0221Z" fill="white"/>
<path fill-rule="evenodd" clip-rule="evenodd" d="M74.3045 72.4244C74.6625 73.4134 75.0035 74.4124 75.2215 75.5244C75.3315 76.0744 75.4065 76.6754 75.3315 77.3954C75.2925 77.5934 75.2685 77.7754 75.1975 77.9824C75.1025 78.1994 74.9875 78.4464 74.8585 78.6154C74.6085 78.9184 74.2955 79.2414 73.8445 79.4184C73.4145 79.6054 72.9305 79.6414 72.5495 79.5774C72.1465 79.5274 71.8315 79.3944 71.5325 79.2604C70.9475 78.9824 70.4935 78.6314 70.0605 78.2824C69.2025 77.5774 68.4855 76.8054 67.7985 76.0184C66.8035 74.8664 65.8585 73.6964 64.9925 72.4864C61.8915 68.3204 59.0595 63.8714 56.3125 59.4674C55.0865 57.5104 53.8165 55.5694 52.5385 53.6744C50.9215 51.2214 49.2655 48.7964 47.8435 46.2104C47.4145 45.3924 47.6045 45.4034 48.2925 45.8644C49.0005 46.3094 50.1965 47.2244 51.2765 48.5524C53.1655 50.9224 54.8255 53.4434 56.4085 56.0034C57.9815 58.5574 59.5595 61.1174 61.1475 63.6954C63.0155 66.7724 65.3375 69.7464 67.4815 72.7394C68.6795 74.3304 69.9395 75.9404 71.4075 77.1104C72.1375 77.6894 72.9995 78.0084 73.2515 77.6834C73.6565 77.5004 73.5495 76.4624 73.3255 75.5564C72.7105 73.2524 71.6165 70.9744 70.5095 68.7614C68.7985 65.4024 66.9285 62.0844 64.9855 58.8664C63.4715 56.3644 61.8035 54.0244 60.2085 51.6124C59.8525 51.0844 59.5025 50.5664 59.1435 50.0344C57.8375 48.0444 57.6495 47.2644 57.8175 46.5504C57.8595 46.3854 57.8795 46.1904 57.9455 46.0684C58.1585 45.6604 58.9915 46.2814 60.1125 47.6414C63.2955 51.7634 66.2205 56.4034 68.9665 61.1954C70.9385 64.7984 72.8275 68.4624 74.3475 72.4014L74.3045 72.4244Z" fill="white"/>
<path fill-rule="evenodd" clip-rule="evenodd" d="M47.0946 45.2125C50.2636 44.4885 53.2866 43.0555 55.7806 40.9375C58.3146 38.8625 60.2946 36.1295 61.6546 33.1395C62.6336 30.9405 63.2146 28.5765 63.4876 26.1855C63.6836 24.0695 63.6246 21.9345 63.2976 19.8295C62.9056 17.7375 62.2416 15.7035 61.3126 13.7855C60.3266 11.8965 59.0636 10.1655 57.5826 8.62548C56.0386 7.15348 54.3066 5.86548 52.3946 4.87248C50.7046 3.97748 48.8696 3.36348 47.0126 2.89548C45.1416 2.46148 43.2266 2.27448 41.3276 2.23848C36.4296 2.25648 31.6076 3.74648 27.5566 6.38548C26.3016 7.20648 26.0776 6.69048 26.8546 5.46248C27.5916 4.21548 29.5956 2.36948 32.5336 1.36948C37.7086 -0.374522 43.3626 -0.429522 48.5736 1.07148C53.7576 2.56448 58.6486 5.74948 61.6136 10.3825C63.4166 13.1005 64.6866 16.2225 65.2886 19.4855C65.8776 22.7495 65.8116 26.1435 65.0786 29.3595C64.2726 32.8945 62.7016 36.2565 60.4616 39.1095C59.3166 40.5105 58.0496 41.8165 56.6306 42.9455C55.1986 44.0555 53.6486 45.0085 52.0086 45.7715C47.9536 47.6305 43.3836 48.2175 39.0126 47.6275C32.3796 46.7615 26.1226 43.0775 22.3366 37.5995C19.3826 33.3615 17.8976 28.2425 18.0536 23.1025C18.0846 21.9695 18.1806 20.8585 18.3856 19.7305C18.7676 17.6385 19.2906 16.3205 19.7286 15.4435C20.1806 14.5695 20.5866 14.1365 21.0366 13.8625C21.2426 13.7385 21.4756 13.5605 21.6426 13.5165C22.2376 13.3925 21.6686 14.9555 20.9396 17.7145C19.8806 21.8145 19.9036 26.2895 21.1776 30.4415C22.4086 34.5955 24.9806 38.3555 28.4656 41.0345C33.6326 45.0105 40.6726 46.6475 47.0746 45.1635L47.0946 45.2125Z" fill="white"/>
<path fill-rule="evenodd" clip-rule="evenodd" d="M77.2962 61.8107C76.7562 60.6967 76.1422 59.6197 75.3902 58.7037C75.1102 58.3757 74.7832 58.1027 74.4802 57.8337C73.9392 57.3447 73.3972 56.9317 72.7942 56.7967C72.1902 56.6337 71.5042 56.6857 70.8222 56.9397C70.2132 57.1547 69.6562 57.5837 69.1682 58.0587C68.5332 58.6747 68.0632 59.4467 67.3592 60.0187C67.1542 60.1837 66.6712 59.8647 66.3612 59.3247C66.0512 58.7907 65.9262 58.0337 66.3282 57.5607C67.0282 56.7277 67.8612 55.9707 68.8822 55.3867C69.8892 54.8107 71.1732 54.4167 72.4692 54.6127C73.2382 54.7027 73.9672 54.9697 74.6382 55.2957C74.9582 55.4667 75.2412 55.6667 75.5412 55.8547C75.8142 56.0647 76.0682 56.2897 76.3222 56.5147C77.3742 57.5497 78.1392 58.7357 78.8082 59.9387C79.2212 60.6797 79.5772 61.4427 79.9242 62.2037C80.4392 63.3617 80.8562 64.5567 81.3002 65.7237C81.6402 66.6337 82.0702 67.4987 82.4032 68.4217C82.4822 68.6227 82.5622 68.8227 82.6222 69.0327C82.8422 69.8107 82.7132 70.1147 82.1602 70.3707C82.0322 70.4307 81.9072 70.5007 81.7752 70.5427C81.3312 70.6827 80.8992 70.4387 80.6732 69.9427C79.9542 68.4627 79.4032 66.8707 78.7822 65.2857C78.3162 64.1127 77.8322 62.9407 77.2482 61.8387L77.2962 61.8107Z" fill="white"/>
<path fill-rule="evenodd" clip-rule="evenodd" d="M86.8461 66.2716C86.4511 65.2886 86.0041 64.3256 85.4701 63.4286C85.2691 63.1066 85.0191 62.8186 84.8041 62.5166C84.0731 61.4286 83.1941 60.4196 82.1101 59.9106C81.6291 59.6986 81.1031 59.6576 80.6191 59.7506C79.9831 59.8886 79.4831 60.2856 78.7831 60.5216C78.5621 60.5816 78.2061 60.1276 78.0561 59.5456C77.9021 58.9706 77.9881 58.2156 78.5551 57.9386C79.5131 57.4416 80.7551 57.2316 81.8691 57.4866C82.9891 57.7296 83.8981 58.3366 84.5721 59.0336C85.3811 59.8626 86.1951 60.6306 86.8211 61.5306C87.4991 62.5176 88.0441 63.5586 88.5291 64.6136C88.8321 65.2606 89.0871 65.9256 89.3511 66.5826C89.7421 67.5826 90.0511 68.6116 90.3961 69.6166C90.6611 70.4006 91.0201 71.1466 91.2771 71.9606C91.3371 72.1386 91.4051 72.3156 91.4451 72.5046C91.5861 73.2076 91.4291 73.4926 90.8381 73.6496C90.7031 73.6866 90.5691 73.7296 90.4331 73.7486C89.9661 73.7966 89.5961 73.5756 89.4141 73.1776C88.8671 71.9746 88.4321 70.6276 87.9531 69.2796C87.5971 68.2786 87.2371 67.2676 86.7961 66.2966L86.8461 66.2716Z" fill="white"/>
<path fill-rule="evenodd" clip-rule="evenodd" d="M98.4681 87.6432C98.3301 85.5942 98.1281 83.5482 97.8151 81.5242C97.6921 80.7882 97.5151 80.0612 97.3701 79.3332C96.8831 76.7662 96.2811 74.1802 95.1431 71.9052C94.6391 70.9112 93.9541 69.9842 93.1331 69.4442C92.6051 69.0932 92.0431 68.9752 91.5021 68.9592C91.2221 69.0162 90.9471 68.9902 90.6551 69.1032C90.5101 69.1482 90.3601 69.1582 90.2091 69.2152C90.0601 69.2762 89.9061 69.3332 89.7471 69.3842C89.3601 69.5032 89.0451 69.0202 89.1391 68.3302C89.1971 67.9962 89.3231 67.5592 89.6571 67.2252C89.9931 66.8932 90.4681 66.5632 91.1141 66.5322C92.2121 66.4182 93.4231 66.7512 94.2531 67.3532C94.7261 67.6202 95.0321 67.9802 95.4061 68.3082C95.7011 68.6622 96.0241 69.0162 96.2631 69.3882C97.2591 70.8732 97.8331 72.4422 98.2551 74.0192C98.7431 75.9042 99.3391 77.7962 99.7011 79.7112C100.094 81.8142 100.355 83.9282 100.551 86.0422C100.665 87.3432 100.758 88.6452 100.827 89.9462C100.941 91.9172 100.961 93.8992 101.012 95.8572C101.056 97.3802 101.176 98.8782 101.19 100.402C101.189 100.738 101.221 101.067 101.198 101.407C101.136 102.664 100.914 103.056 100.295 103.241C100.153 103.284 100.01 103.345 99.8701 103.36C99.3961 103.411 99.0831 102.872 99.0391 101.994C98.8831 99.3752 98.8491 96.6252 98.7581 93.8482C98.6851 91.7882 98.5971 89.7132 98.4131 87.6512L98.4681 87.6432Z" fill="white"/>
<path fill-rule="evenodd" clip-rule="evenodd" d="M69.8456 92.694C67.4306 90.146 65.1826 87.443 63.2116 84.526C62.4896 83.465 61.7786 82.386 61.1726 81.241C60.1266 79.218 59.2006 77.065 58.9986 74.618C58.9016 73.424 59.0946 71.993 60.0446 70.907C60.4956 70.405 61.1746 69.949 61.9456 69.87C62.7096 69.783 63.3896 70.011 63.9506 70.285C64.9596 70.785 65.7386 71.465 66.5006 72.136C67.2486 72.821 67.9576 73.519 68.6246 74.237C69.4866 75.153 70.3396 76.065 71.1956 76.934C71.6256 77.364 72.0536 77.786 72.4836 78.168C72.9086 78.537 73.3746 78.885 73.7436 78.988C73.8546 79.017 73.9286 79.05 73.9876 79.083C74.0506 79.126 74.1056 79.187 74.1296 79.261C74.1796 79.383 74.1056 79.698 73.6776 79.875C73.2626 80.056 72.5906 80.036 71.9506 79.817C71.3086 79.597 70.6406 79.238 70.0846 78.718C68.1216 76.903 66.4756 74.966 64.7536 73.324C63.9196 72.543 62.9016 71.833 62.3016 71.811C62.0276 71.779 61.7966 71.861 61.4706 72.171C61.1966 72.45 60.9976 72.852 60.8866 73.342C60.6166 74.542 60.9816 76.056 61.5196 77.429C62.0646 78.826 62.8036 80.181 63.5946 81.491C65.3436 84.374 67.4736 87.066 69.8176 89.547C71.2586 91.077 72.7756 92.541 74.3666 93.92C76.7746 96.047 79.2926 97.92 82.0326 99.712C84.1646 101.222 85.9116 103.45 86.6376 106.021C86.8096 106.578 86.9576 107.127 87.0546 107.696C87.2366 108.751 87.2066 109.439 87.1386 109.915C87.0986 110.156 87.0386 110.34 86.9526 110.502C86.8476 110.666 86.7246 110.796 86.5986 110.918C86.4826 111.029 86.3836 111.173 86.2886 111.244C86.0246 111.5 85.3216 110.671 85.0476 109.248C84.5876 107.151 83.9506 105.241 82.7846 103.687C82.2056 102.909 81.4966 102.224 80.6936 101.618L80.0746 101.178L79.3366 100.683C78.8396 100.356 78.3506 100.015 77.8676 99.665C74.9816 97.609 72.2936 95.265 69.8106 92.736L69.8456 92.694Z" fill="white"/>
<path fill-rule="evenodd" clip-rule="evenodd" d="M21.3289 41.2623C23.6089 44.0503 26.6119 46.3013 29.9999 47.7003C30.6069 47.9833 31.2589 48.1503 31.8879 48.3753C32.5339 48.5453 33.1779 48.7273 33.8279 48.8803C38.4109 49.9693 43.3669 49.6933 47.7969 47.8993C49.7589 47.1073 51.6189 46.0073 53.2259 44.6483C55.3239 42.9263 57.0219 40.8043 58.7259 38.6863C59.2699 38.0363 59.6779 38.4133 59.6939 39.3223C59.7019 39.7773 59.6099 40.3683 59.3909 41.0233C59.1509 41.6623 58.7469 42.3413 58.2169 43.0003C54.3369 47.5773 48.6359 50.7093 42.6329 51.3233C39.0649 51.6983 35.2869 51.5623 31.7699 50.5183C27.9229 49.3743 24.3339 47.3373 21.4779 44.5233C19.7139 42.8033 18.2299 40.7973 17.1119 38.6093C16.2679 36.9523 15.6119 35.1873 15.2439 33.3663C15.1289 32.9153 15.0409 32.4613 14.9879 31.9993C14.9269 31.5403 14.8479 31.0853 14.7999 30.6233C14.7169 29.6973 14.6899 28.7683 14.7299 27.8443C14.8519 24.9773 15.4669 22.1633 16.6779 19.5543C16.9499 18.9833 17.2059 18.4153 17.5459 17.8723C18.8029 15.8533 19.5059 15.4223 20.2359 15.4243C20.4069 15.4273 20.5999 15.4053 20.7369 15.4463C21.2129 15.6033 20.8239 16.4773 19.9979 17.8093C17.5799 21.7763 16.2359 26.6893 17.0349 31.4493C17.5319 35.0193 19.0749 38.4163 21.3659 41.2253L21.3289 41.2623Z" fill="white"/>
</svg>
