<svg width="40" height="40" viewBox="0 0 40 40" fill="none" xmlns="http://www.w3.org/2000/svg">
<path d="M31.6667 9.16667C31.6667 11.4679 26.4434 13.3333 20 13.3333C13.5567 13.3333 8.33337 11.4679 8.33337 9.16667C8.33337 6.86548 13.5567 5 20 5C26.4434 5 31.6667 6.86548 31.6667 9.16667Z" fill="url(#paint0_linear_201_63)"/>
<path d="M31.6667 9.16667C31.6667 11.4679 26.4434 13.3333 20 13.3333C13.5567 13.3333 8.33337 11.4679 8.33337 9.16667M31.6667 9.16667C31.6667 6.86548 26.4434 5 20 5C13.5567 5 8.33337 6.86548 8.33337 9.16667M31.6667 9.16667V30.8333C31.6667 33.1345 26.4434 35 20 35C13.5567 35 8.33337 33.1345 8.33337 30.8333V9.16667M31.6667 20C31.6667 22.3012 26.4434 24.1667 20 24.1667C13.5567 24.1667 8.33337 22.3012 8.33337 20" stroke="white" stroke-width="2" stroke-linecap="round" stroke-linejoin="round"/>
<defs>
<linearGradient id="paint0_linear_201_63" x1="20" y1="5" x2="19.9999" y2="21.5" gradientUnits="userSpaceOnUse">
<stop stop-color="white" stop-opacity="0"/>
<stop offset="1" stop-color="white"/>
</linearGradient>
</defs>
</svg>
